<svg width="26" height="26" viewBox="0 0 26 26" fill="none" xmlns="http://www.w3.org/2000/svg">
<path d="M16.025 5.94168C15.8923 5.94091 15.7608 5.96634 15.6379 6.01652C15.5151 6.0667 15.4033 6.14064 15.3091 6.23409L9.2591 12.2841C9.07129 12.473 8.96588 12.7286 8.96588 12.995C8.96588 13.2614 9.07129 13.5169 9.2591 13.7058L15.3091 19.7558C15.502 19.921 15.7501 20.0074 16.0039 19.9976C16.2577 19.9878 16.4984 19.8826 16.678 19.703C16.8576 19.5234 16.9628 19.2827 16.9726 19.0289C16.9824 18.7751 16.896 18.527 16.7308 18.3341L11.3968 13L16.7308 7.66593C16.8724 7.52549 16.9692 7.34623 17.0089 7.1508C17.0486 6.95537 17.0295 6.75256 16.954 6.568C16.8784 6.38344 16.7498 6.22543 16.5845 6.11395C16.4191 6.00246 16.2244 5.94251 16.025 5.94168Z" fill="#05161C"/>
</svg>
