<svg width="30" height="30" viewBox="0 0 30 30" fill="none" xmlns="http://www.w3.org/2000/svg">
<path d="M8.44996 27.5H21.55C25 27.5 26.375 25.3875 26.5375 22.8125L27.1875 12.4875C27.3625 9.7875 25.2125 7.5 22.5 7.5C21.7375 7.5 21.0375 7.0625 20.6875 6.3875L19.7875 4.575C19.2125 3.4375 17.7125 2.5 16.4375 2.5H13.575C12.2875 2.5 10.7875 3.4375 10.2125 4.575L9.31246 6.3875C8.96246 7.0625 8.26246 7.5 7.49996 7.5C4.78747 7.5 2.63747 9.7875 2.81247 12.4875L3.46247 22.8125C3.61247 25.3875 4.99997 27.5 8.44996 27.5Z" stroke="#05161C" stroke-width="1.68" stroke-linecap="round" stroke-linejoin="round"/>
<path d="M13.125 10H16.875" stroke="#05161C" stroke-width="1.68" stroke-linecap="round" stroke-linejoin="round"/>
<path d="M15 22.5C17.2375 22.5 19.0625 20.675 19.0625 18.4375C19.0625 16.2 17.2375 14.375 15 14.375C12.7625 14.375 10.9375 16.2 10.9375 18.4375C10.9375 20.675 12.7625 22.5 15 22.5Z" stroke="#05161C" stroke-width="1.68" stroke-linecap="round" stroke-linejoin="round"/>
</svg>
