<svg width="50" height="50" viewBox="0 0 50 50" fill="none" xmlns="http://www.w3.org/2000/svg">
<path d="M25.0003 4.16667C19.542 4.16667 15.1045 8.60417 15.1045 14.0625C15.1045 19.4167 19.292 23.75 24.7503 23.9375C24.917 23.9167 25.0837 23.9167 25.2087 23.9375C25.2503 23.9375 25.2712 23.9375 25.3128 23.9375C25.3337 23.9375 25.3337 23.9375 25.3545 23.9375C30.6878 23.75 34.8753 19.4167 34.8962 14.0625C34.8962 8.60417 30.4587 4.16667 25.0003 4.16667Z" fill="#171717"/>
<path d="M35.583 29.4792C29.7705 25.6042 20.2913 25.6042 14.4372 29.4792C11.7913 31.25 10.333 33.6458 10.333 36.2083C10.333 38.7708 11.7913 41.1458 14.4163 42.8958C17.333 44.8542 21.1663 45.8333 24.9997 45.8333C28.833 45.8333 32.6663 44.8542 35.583 42.8958C38.208 41.125 39.6663 38.75 39.6663 36.1667C39.6455 33.6042 38.208 31.2292 35.583 29.4792Z" fill="#171717"/>
</svg>
