<svg width="60" height="60" viewBox="0 0 60 60" fill="none" xmlns="http://www.w3.org/2000/svg">
<path d="M54.1504 26.1L51.7004 36.55C49.6004 45.575 45.4504 49.225 37.6504 48.475C36.4004 48.375 35.0504 48.15 33.6004 47.8L29.4004 46.8C18.9754 44.325 15.7504 39.175 18.2004 28.725L20.6504 18.25C21.1504 16.125 21.7504 14.275 22.5004 12.75C25.4254 6.69999 30.4004 5.07499 38.7504 7.04999L42.9254 8.02499C53.4004 10.475 56.6004 15.65 54.1504 26.1Z" stroke="#05161C" stroke-width="3.75" stroke-linecap="round" stroke-linejoin="round"/>
<path d="M37.6499 48.475C36.0999 49.525 34.1499 50.4 31.7749 51.175L27.8249 52.475C17.8999 55.675 12.6749 53 9.44988 43.075L6.24988 33.2C3.04988 23.275 5.69988 18.025 15.6249 14.825L19.5749 13.525C20.5999 13.2 21.5749 12.925 22.4999 12.75C21.7499 14.275 21.1499 16.125 20.6499 18.25L18.1999 28.725C15.7499 39.175 18.9749 44.325 29.3999 46.8L33.5999 47.8C35.0499 48.15 36.3999 48.375 37.6499 48.475Z" stroke="#05161C" stroke-width="3.75" stroke-linecap="round" stroke-linejoin="round"/>
<path d="M31.6006 21.325L43.7256 24.4" stroke="#292929" stroke-width="3.75" stroke-linecap="round" stroke-linejoin="round"/>
<path d="M29.1504 31L36.4004 32.85" stroke="#292929" stroke-width="3.75" stroke-linecap="round" stroke-linejoin="round"/>
</svg>
