<svg width="14" height="14" viewBox="0 0 14 14" fill="none" xmlns="http://www.w3.org/2000/svg">
<path d="M10.1734 3.23683L6.97172 1.51416C6.63172 1.33283 6.22939 1.33283 5.88939 1.51416L2.69339 3.23683C2.46105 3.36716 2.31372 3.61649 2.31372 3.88849C2.31372 4.16616 2.45539 4.41549 2.69339 4.54016L5.89505 6.26283C6.06505 6.35349 6.25205 6.39883 6.43339 6.39883C6.61472 6.39883 6.80739 6.35349 6.97172 6.26283L10.1734 4.54016C10.4057 4.41549 10.5531 4.16616 10.5531 3.88849C10.5531 3.61649 10.4057 3.36716 10.1734 3.23683Z" fill="white"/>
<path d="M5.36804 6.86349L2.39304 5.37883C2.16071 5.25983 1.90004 5.27683 1.67904 5.40716C1.46371 5.54316 1.33337 5.77549 1.33337 6.03049V8.84116C1.33337 9.32849 1.60537 9.76483 2.04171 9.98583L5.01671 11.4705C5.11871 11.5215 5.23204 11.5498 5.34537 11.5498C5.47571 11.5498 5.61171 11.5102 5.73071 11.4422C5.94604 11.3062 6.07637 11.0738 6.07637 10.8188V8.00816C6.07071 7.52083 5.79871 7.08449 5.36804 6.86349Z" fill="white"/>
<path d="M11.5334 6.03049V7.42449C11.2614 7.34516 10.9724 7.31116 10.6834 7.31116C9.91269 7.31116 9.15902 7.57749 8.56402 8.05349C7.74802 8.69383 7.28335 9.66283 7.28335 10.7112C7.28335 10.9888 7.31735 11.2665 7.39102 11.5328C7.30602 11.5215 7.22102 11.4875 7.14169 11.4365C6.92635 11.3062 6.79602 11.0738 6.79602 10.8188V8.00816C6.79602 7.52083 7.06802 7.08449 7.49869 6.86349L10.4737 5.37883C10.706 5.25983 10.9667 5.27683 11.1877 5.40716C11.403 5.54316 11.5334 5.77549 11.5334 6.03049Z" fill="white"/>
<path d="M12.6554 9.10749C12.1907 8.53516 11.4824 8.17249 10.6834 8.17249C10.0827 8.17249 9.52736 8.38216 9.09103 8.73349C8.50169 9.19816 8.13336 9.91783 8.13336 10.7225C8.13336 11.1985 8.26936 11.6518 8.50169 12.0372C8.65469 12.2922 8.84736 12.5132 9.07403 12.6945H9.0797C9.51603 13.0572 10.077 13.2725 10.6834 13.2725C11.3294 13.2725 11.913 13.0345 12.3607 12.6378C12.559 12.4678 12.729 12.2638 12.865 12.0372C13.0974 11.6518 13.2334 11.1985 13.2334 10.7225C13.2334 10.1105 13.018 9.54383 12.6554 9.10749ZM11.964 10.4052L10.604 11.6632C10.5247 11.7368 10.417 11.7765 10.315 11.7765C10.2074 11.7765 10.0997 11.7368 10.0147 11.6518L9.38569 11.0228C9.22136 10.8585 9.22136 10.5865 9.38569 10.4222C9.55003 10.2578 9.82203 10.2578 9.98636 10.4222L10.3264 10.7622L11.386 9.78183C11.556 9.62316 11.828 9.63449 11.9867 9.80449C12.151 9.98016 12.1397 10.2465 11.964 10.4052Z" fill="white"/>
</svg>
