<svg width="24" height="24" viewBox="0 0 24 24" fill="none" xmlns="http://www.w3.org/2000/svg">
<path d="M4.90055 7.94C4.90055 6.96667 5.18055 6.20667 5.74055 5.66C6.31388 5.1 7.04721 4.82 7.94055 4.82C8.83388 4.82 9.56055 5.1 10.1205 5.66C10.6939 6.20667 10.9805 6.96667 10.9805 7.94C10.9805 8.91333 10.6939 9.68 10.1205 10.24C9.56055 10.8 8.83388 11.08 7.94055 11.08C7.04721 11.08 6.31388 10.8 5.74055 10.24C5.18055 9.68 4.90055 8.91333 4.90055 7.94ZM17.1005 5.08L9.12055 19H6.88055L14.8605 5.08H17.1005ZM7.94055 6.2C7.10055 6.2 6.68055 6.78 6.68055 7.94C6.68055 9.11333 7.10055 9.7 7.94055 9.7C8.34055 9.7 8.64721 9.56 8.86055 9.28C9.08721 8.98667 9.20055 8.54 9.20055 7.94C9.20055 6.78 8.78055 6.2 7.94055 6.2ZM13.0405 16.12C13.0405 15.1467 13.3205 14.3867 13.8805 13.84C14.4539 13.28 15.1872 13 16.0805 13C16.9605 13 17.6805 13.28 18.2405 13.84C18.8139 14.3867 19.1005 15.1467 19.1005 16.12C19.1005 17.0933 18.8139 17.86 18.2405 18.42C17.6805 18.98 16.9605 19.26 16.0805 19.26C15.1872 19.26 14.4539 18.98 13.8805 18.42C13.3205 17.86 13.0405 17.0933 13.0405 16.12ZM16.0605 14.38C15.2205 14.38 14.8005 14.96 14.8005 16.12C14.8005 17.28 15.2205 17.86 16.0605 17.86C16.9005 17.86 17.3205 17.28 17.3205 16.12C17.3205 14.96 16.9005 14.38 16.0605 14.38Z" fill="black"/>
</svg>
