<svg width="17" height="17" viewBox="0 0 17 17" fill="none" xmlns="http://www.w3.org/2000/svg">
<path d="M13.7394 7.43752C13.7385 7.528 13.7198 7.61741 13.6843 7.70064C13.6488 7.78386 13.5972 7.85927 13.5325 7.92252L9.34448 11.9835C9.21371 12.1096 9.03838 12.1788 8.85677 12.176C8.67517 12.1732 8.50205 12.0986 8.37522 11.9686L4.31421 7.78059C4.20362 7.64735 4.14738 7.47728 4.15672 7.30438C4.16607 7.13148 4.24032 6.96847 4.36463 6.84793C4.48894 6.72739 4.65416 6.65819 4.82727 6.65417C5.00038 6.65015 5.16863 6.71161 5.2984 6.82625L8.87885 10.5187L12.5713 6.93823C12.6685 6.84317 12.7917 6.77908 12.9254 6.75406C13.059 6.72904 13.1971 6.74421 13.3221 6.79765C13.4472 6.85109 13.5535 6.94041 13.6278 7.0543C13.7021 7.1682 13.7409 7.30156 13.7394 7.43752Z" fill="#05161C"/>
</svg>
