<svg width="14" height="14" viewBox="0 0 14 14" fill="none" xmlns="http://www.w3.org/2000/svg">
<path d="M9.91669 12.3958H4.08335C1.95419 12.3958 0.729187 11.1708 0.729187 9.04163V4.95829C0.729187 2.82913 1.95419 1.60413 4.08335 1.60413H9.91669C12.0459 1.60413 13.2709 2.82913 13.2709 4.95829V9.04163C13.2709 11.1708 12.0459 12.3958 9.91669 12.3958ZM4.08335 2.47913C2.41502 2.47913 1.60419 3.28996 1.60419 4.95829V9.04163C1.60419 10.71 2.41502 11.5208 4.08335 11.5208H9.91669C11.585 11.5208 12.3959 10.71 12.3959 9.04163V4.95829C12.3959 3.28996 11.585 2.47913 9.91669 2.47913H4.08335Z" fill="#171717"/>
<path d="M6.99985 7.50748C6.50985 7.50748 6.01402 7.35582 5.63485 7.04665L3.80902 5.58832C3.62235 5.43665 3.58735 5.16248 3.73902 4.97582C3.89069 4.78915 4.16485 4.75415 4.35152 4.90582L6.17735 6.36415C6.62068 6.71998 7.37318 6.71998 7.81651 6.36415L9.64235 4.90582C9.82902 4.75415 10.109 4.78332 10.2549 4.97582C10.4065 5.16248 10.3774 5.44248 10.1849 5.58832L8.35902 7.04665C7.98568 7.35582 7.48985 7.50748 6.99985 7.50748Z" fill="#171717"/>
</svg>
