<svg width="343" height="343" viewBox="0 0 343 343" fill="none" xmlns="http://www.w3.org/2000/svg">
<path d="M150.316 126.018C151.51 125.767 152.694 125.501 153.87 125.222C182.833 118.548 215.953 114.679 241.067 126.45C265.688 137.982 262.663 162.424 248.263 184.87C223.615 223.286 130.271 259.74 105.081 220.679C96.9386 208.057 110.974 185.831 100.876 170.951C89.3789 154.007 36.1727 164.722 46.8057 127.287C52.6985 106.529 67.8179 107.75 84.0624 114.487C93.3851 118.349 102.289 123.158 111.935 126.423C123.645 130.395 137.31 128.803 150.316 126.018Z" fill="black"/>
<path opacity="0.9" d="M150.316 126.018C151.51 125.767 152.694 125.501 153.87 125.222C182.833 118.548 215.953 114.679 241.067 126.45C265.688 137.982 262.663 162.424 248.263 184.87C223.615 223.286 130.271 259.74 105.081 220.679C96.9386 208.057 110.974 185.831 100.876 170.951C89.3789 154.007 36.1727 164.722 46.8057 127.287C52.6985 106.529 67.8179 107.75 84.0624 114.487C93.3851 118.349 102.289 123.158 111.935 126.423C123.645 130.395 137.31 128.803 150.316 126.018Z" fill="white"/>
<path d="M171.5 293.306C244.959 293.306 304.509 289.829 304.509 285.541C304.509 281.252 244.959 277.775 171.5 277.775C98.0414 277.775 38.4915 281.252 38.4915 285.541C38.4915 289.829 98.0414 293.306 171.5 293.306Z" fill="#F5F5F5"/>
<path d="M86.5115 232.341H174.621V277.83C174.621 278.413 174.507 278.99 174.283 279.529C174.06 280.067 173.733 280.556 173.321 280.968C172.909 281.381 172.42 281.708 171.881 281.931C171.343 282.154 170.766 282.268 170.183 282.268H90.9499C90.367 282.268 89.7899 282.154 89.2514 281.931C88.7129 281.708 88.2236 281.381 87.8115 280.968C87.3993 280.556 87.0724 280.067 86.8493 279.529C86.6263 278.99 86.5115 278.413 86.5115 277.83V232.341Z" fill="black"/>
<path d="M86.5115 232.341H148.862L141.193 222.525C140.349 221.448 138.263 220.576 136.528 220.576H80.4542C78.7254 220.576 77.9983 221.448 78.8421 222.525L86.5115 232.341Z" fill="black"/>
<path opacity="0.2" d="M86.5115 232.341H148.862L141.193 222.525C140.349 221.448 138.263 220.576 136.528 220.576H80.4542C78.7254 220.576 77.9983 221.448 78.8421 222.525L86.5115 232.341Z" fill="#7A7A7A"/>
<path d="M174.622 232.341H112.278L119.947 225.941C120.791 225.255 122.877 224.672 124.612 224.672H180.679C182.414 224.672 183.135 225.241 182.291 225.941L174.622 232.341Z" fill="black"/>
<path opacity="0.2" d="M112.278 232.341H174.622V277.83C174.622 278.413 174.507 278.99 174.284 279.529C174.061 280.067 173.734 280.556 173.322 280.968C172.909 281.381 172.42 281.708 171.882 281.931C171.343 282.154 170.766 282.268 170.183 282.268H116.716C116.133 282.268 115.556 282.154 115.018 281.931C114.479 281.708 113.99 281.381 113.578 280.968C113.166 280.556 112.839 280.067 112.616 279.529C112.393 278.99 112.278 278.413 112.278 277.83V232.341Z" fill="white"/>
<path opacity="0.5" d="M94.2495 232.341V263.541L96.4036 261.839L97.9196 263.541L99.2367 261.647L100.588 263.541L102.468 262.121L104.54 263.541V232.341H94.2495Z" fill="white"/>
<path d="M108.196 164.283L97.1169 154.981" stroke="black" stroke-miterlimit="10"/>
<path d="M113.938 169.106L110.562 166.266" stroke="black" stroke-miterlimit="10"/>
<path d="M147.126 188.575L183.676 142.894L135.012 102.036L102.77 139.032L97.9676 148.286C97.7292 148.548 97.5475 148.858 97.434 149.194C97.3205 149.53 97.2775 149.886 97.3077 150.239C97.338 150.593 97.4408 150.936 97.6099 151.248C97.7789 151.56 98.0104 151.834 98.29 152.052L142.194 188.918C142.908 189.493 143.813 189.777 144.727 189.713C145.642 189.65 146.499 189.243 147.126 188.575Z" fill="black"/>
<path opacity="0.5" d="M122.06 154.885L116.798 163.357L118.918 163.817L119.638 165.779L121.045 165.861L121.696 167.542L123.418 168.043L124.742 170.149L130.004 161.676L122.06 154.885Z" fill="white"/>
<path opacity="0.1" d="M182.085 141.556L149.308 178.12L102.749 139.032L135.012 102.036L182.085 141.556Z" fill="#7A7A7A"/>
<path d="M182.085 141.556L149.308 178.12L162.877 179.121L195.146 142.125L182.085 141.556Z" fill="black"/>
<path opacity="0.3" d="M182.085 141.556L149.308 178.12L162.877 179.121L195.146 142.125L182.085 141.556Z" fill="#7A7A7A"/>
<path d="M121.957 101.459L89.1731 138.03L102.749 139.032L135.012 102.036L121.957 101.459Z" fill="black"/>
<path opacity="0.4" d="M121.957 101.459L89.1731 138.03L102.749 139.032L135.012 102.036L121.957 101.459Z" fill="#7A7A7A"/>
<path opacity="0.1" d="M171.994 152.813L182.085 141.556L135.012 102.036L128.989 116.551L171.994 152.813Z" fill="#7A7A7A"/>
<path opacity="0.2" d="M102.749 139.032L135.012 102.036L128.989 116.551L106.268 141.988L102.749 139.032Z" fill="#7A7A7A"/>
<path d="M193.452 72.716C193.582 73.155 193.452 73.5872 193.164 73.6695C192.876 73.7519 192.54 73.4637 192.409 73.0247C192.279 72.5857 192.409 72.1535 192.697 72.0643C192.985 71.9751 193.328 72.277 193.452 72.716Z" fill="#263238"/>
<path d="M193.5 73.5804C193.371 75.0898 193.033 76.5741 192.498 77.9913C192.865 78.1185 193.255 78.1642 193.641 78.1251C194.028 78.086 194.401 77.9631 194.735 77.765L193.5 73.5804Z" fill="#ED847E"/>
<path d="M194.364 69.7868C194.423 69.7533 194.467 69.6996 194.488 69.6359C194.501 69.6026 194.507 69.5671 194.505 69.5314C194.504 69.4958 194.495 69.4608 194.48 69.4287C194.464 69.3965 194.443 69.3679 194.416 69.3445C194.389 69.3212 194.357 69.3036 194.323 69.2929C193.921 69.1388 193.488 69.0839 193.061 69.1328C192.633 69.1818 192.224 69.3332 191.867 69.5741C191.821 69.6212 191.793 69.6834 191.789 69.7493C191.785 69.8153 191.804 69.8805 191.844 69.9331C191.885 69.9856 191.942 70.022 192.007 70.0354C192.072 70.0489 192.139 70.0385 192.197 70.0063C192.482 69.8194 192.807 69.7032 193.146 69.6674C193.485 69.6316 193.827 69.6772 194.145 69.8005C194.18 69.8135 194.218 69.819 194.256 69.8166C194.294 69.8142 194.331 69.8041 194.364 69.7868Z" fill="#263238"/>
<path d="M208.709 75.6521C209.01 79.2879 209.909 85.9421 212.056 87.4787C212.056 87.4787 211.549 91.8485 203.824 92.9667C195.359 94.2152 199.159 89.3584 199.159 89.3584C203.612 87.5748 202.987 84.1653 201.711 81.0646L204.977 77.3191C206.232 75.9333 208.544 73.793 208.709 75.6521Z" fill="#FFC3BD"/>
<path d="M214.821 89.2555C215.507 88.6312 214.135 86.1342 213.291 85.7843C211.082 84.8582 202.048 85.7843 198.652 88.6998C198.37 89.1822 198.2 89.7215 198.154 90.2782C198.107 90.8349 198.186 91.3949 198.384 91.9171L214.821 89.2555Z" fill="white"/>
<path d="M243.592 272.623C243.369 272.725 243.127 272.781 242.882 272.788C242.637 272.795 242.393 272.753 242.165 272.664C242.074 272.593 242.008 272.495 241.975 272.385C241.942 272.274 241.943 272.157 241.979 272.047C241.998 271.957 242.035 271.873 242.09 271.799C242.144 271.726 242.214 271.665 242.295 271.622C243.036 271.19 244.868 271.759 244.943 271.786C244.968 271.793 244.991 271.807 245.008 271.827C245.025 271.846 245.036 271.87 245.039 271.896C245.043 271.923 245.038 271.951 245.026 271.975C245.013 272 244.994 272.02 244.97 272.033C244.532 272.276 244.07 272.474 243.592 272.623ZM242.59 271.786L242.432 271.855C242.385 271.88 242.345 271.916 242.313 271.958C242.281 272.001 242.258 272.05 242.247 272.102C242.199 272.349 242.295 272.424 242.322 272.445C242.652 272.678 243.77 272.342 244.545 271.951C243.914 271.753 243.246 271.697 242.59 271.786Z" fill="black"/>
<path d="M244.943 272.04C244.921 272.047 244.897 272.047 244.874 272.04C244.188 271.903 242.755 271.045 242.679 270.401C242.668 270.299 242.693 270.197 242.75 270.112C242.806 270.027 242.89 269.964 242.988 269.934C243.083 269.892 243.186 269.87 243.29 269.87C243.394 269.87 243.497 269.892 243.592 269.934C244.387 270.263 245.005 271.8 245.025 271.862C245.039 271.882 245.046 271.906 245.046 271.93C245.046 271.955 245.039 271.979 245.025 271.999C245.016 272.012 245.003 272.022 244.989 272.029C244.975 272.036 244.959 272.04 244.943 272.04ZM243.159 270.167C243.139 270.161 243.118 270.161 243.098 270.167C242.94 270.236 242.947 270.318 242.954 270.353C242.995 270.737 243.969 271.43 244.662 271.683C244.456 271.238 243.976 270.373 243.489 270.167C243.383 270.127 243.265 270.127 243.159 270.167Z" fill="black"/>
<path d="M203.385 279.991C202.651 279.991 201.945 279.888 201.705 279.559C201.643 279.473 201.61 279.37 201.61 279.264C201.61 279.158 201.643 279.055 201.705 278.969C201.75 278.889 201.812 278.82 201.885 278.765C201.958 278.709 202.041 278.669 202.13 278.646C203.083 278.393 205.087 279.531 205.169 279.579C205.194 279.592 205.215 279.612 205.228 279.637C205.241 279.662 205.246 279.69 205.241 279.718C205.236 279.746 205.223 279.772 205.202 279.791C205.182 279.811 205.156 279.823 205.128 279.826C204.553 279.934 203.97 279.989 203.385 279.991ZM202.48 278.88C202.392 278.876 202.303 278.888 202.219 278.914C202.109 278.938 202.013 279.005 201.952 279.099C201.856 279.271 201.89 279.353 201.952 279.401C202.219 279.771 203.667 279.778 204.696 279.627C204.012 279.237 203.26 278.983 202.48 278.88Z" fill="black"/>
<path d="M205.114 279.833H205.059C204.373 279.524 203.001 278.283 203.104 277.638C203.104 277.487 203.241 277.295 203.611 277.261C203.745 277.246 203.881 277.259 204.01 277.299C204.139 277.339 204.258 277.405 204.359 277.494C205.093 278.091 205.244 279.634 205.251 279.696C205.255 279.72 205.252 279.744 205.242 279.766C205.232 279.788 205.216 279.806 205.196 279.819C205.171 279.833 205.142 279.838 205.114 279.833ZM203.742 277.514H203.66C203.413 277.514 203.399 277.638 203.392 277.665C203.33 278.056 204.263 279.037 204.963 279.456C204.903 278.801 204.639 278.182 204.208 277.686C204.08 277.572 203.913 277.511 203.742 277.514Z" fill="black"/>
<path d="M211.411 279.696H205.683L205.114 266.442H210.842L211.411 279.696Z" fill="#FFC3BD"/>
<path d="M251.645 270.648L246.37 272.465L240.896 259.973L246.171 258.156L251.645 270.648Z" fill="#FFC3BD"/>
<path d="M245.115 271.155L251.289 269.269C251.398 269.235 251.515 269.24 251.621 269.283C251.727 269.325 251.816 269.402 251.872 269.502L254.444 274.03C254.506 274.14 254.542 274.264 254.55 274.39C254.557 274.517 254.536 274.643 254.488 274.761C254.44 274.878 254.366 274.983 254.272 275.068C254.177 275.153 254.065 275.215 253.943 275.251C251.783 275.875 250.706 276.067 248.003 276.897C246.336 277.405 242.137 278.996 239.771 279.47C237.404 279.943 236.642 277.679 237.562 277.274C241.678 275.456 243.365 273.392 244.346 271.786C244.517 271.49 244.791 271.266 245.115 271.155Z" fill="#263238"/>
<path d="M205.724 279.031H211.974C212.087 279.032 212.196 279.071 212.285 279.142C212.373 279.213 212.435 279.311 212.461 279.422L213.593 284.512C213.621 284.634 213.621 284.762 213.592 284.885C213.564 285.007 213.508 285.122 213.428 285.22C213.349 285.318 213.249 285.396 213.134 285.449C213.02 285.503 212.896 285.529 212.77 285.527C210.513 285.493 207.282 285.355 204.421 285.355C201.108 285.355 199.715 285.541 195.825 285.541C193.479 285.541 192.828 283.167 193.809 282.948C198.288 281.967 200.477 281.864 204.346 279.476C204.756 279.205 205.233 279.051 205.724 279.031Z" fill="#263238"/>
<path d="M222.36 91.1282C224.027 92.658 225.468 94.1878 226.963 95.7862C228.458 97.3846 229.844 99.0378 231.189 100.801C232.593 102.592 233.868 104.481 235.003 106.453C235.623 107.541 236.16 108.674 236.608 109.842C236.725 110.165 236.841 110.473 236.937 110.823C237.05 111.177 237.144 111.537 237.219 111.9L237.335 112.47L237.418 113.101C237.494 113.679 237.494 114.265 237.418 114.843C237.26 115.935 236.857 116.976 236.238 117.889C235.786 118.556 235.256 119.166 234.66 119.707C233.701 120.577 232.652 121.343 231.532 121.991C229.558 123.121 227.493 124.082 225.358 124.866C221.308 126.369 217.135 127.517 212.886 128.296L211.686 124.18C215.411 122.568 219.184 120.825 222.662 118.966C224.355 118.078 225.984 117.074 227.539 115.961C228.187 115.501 228.783 114.972 229.316 114.384C229.478 114.21 229.614 114.013 229.721 113.801C229.776 113.684 229.721 113.698 229.652 113.945C229.604 114.404 229.611 114.048 229.501 113.801C229.467 113.684 229.405 113.526 229.343 113.375C229.282 113.224 229.206 113.053 229.131 112.888C228.759 112.14 228.345 111.414 227.889 110.714C226.83 109.14 225.685 107.627 224.459 106.179C223.197 104.684 221.866 103.195 220.501 101.734C219.136 100.273 217.702 98.7977 216.385 97.4394L222.36 91.1282Z" fill="#FFC3BD"/>
<path d="M213.257 123.528L207.858 125.161L211.329 130.868C211.329 130.868 214.519 129.551 215.226 126.841L213.257 123.528Z" fill="#FFC3BD"/>
<path d="M205.677 127.184L207.803 131.89L211.295 130.875L207.824 125.161L205.677 127.184Z" fill="#FFC3BD"/>
<path d="M209.71 92.6786C209.196 98.1666 220.803 106.659 220.803 106.659L231.978 99.0104C230.037 95.4315 227.201 92.4176 223.746 90.2639C217.339 86.1616 210.355 85.8598 209.71 92.6786Z" fill="black"/>
<g opacity="0.3">
<path opacity="0.3" d="M209.71 92.6786C209.196 98.1666 220.803 106.659 220.803 106.659L231.978 99.0104C230.037 95.4315 227.201 92.4176 223.746 90.2639C217.339 86.1616 210.355 85.8598 209.71 92.6786Z" fill="white"/>
</g>
<path d="M190.708 92.2396C190.708 92.2396 185.693 99.9365 197.602 141.22L227.882 136.747C227.457 132.563 222.394 114.308 222.223 94.3524C222.216 93.3887 222.014 92.4365 221.628 91.5531C221.243 90.6696 220.683 89.8734 219.982 89.2125C219.28 88.5515 218.452 88.0395 217.548 87.7073C216.643 87.3752 215.68 87.2297 214.718 87.2798C213.84 87.3278 212.934 87.3895 212.036 87.4787C207.713 87.8641 203.416 88.4986 199.166 89.3789C196.278 90.1139 193.45 91.0703 190.708 92.2396Z" fill="black"/>
<g opacity="0.3">
<path opacity="0.3" d="M190.708 92.2396C190.708 92.2396 185.693 99.9365 197.602 141.22L227.882 136.747C227.457 132.563 222.394 114.308 222.223 94.3524C222.216 93.3887 222.014 92.4365 221.628 91.5531C221.243 90.6696 220.683 89.8734 219.982 89.2125C219.28 88.5515 218.452 88.0395 217.548 87.7073C216.643 87.3752 215.68 87.2297 214.718 87.2798C213.84 87.3278 212.934 87.3895 212.036 87.4787C207.713 87.8641 203.416 88.4986 199.166 89.3789C196.278 90.1139 193.45 91.0703 190.708 92.2396Z" fill="white"/>
</g>
<path opacity="0.2" d="M189.967 105.507L190.07 105.39L197.191 106.021C198.274 110.618 194.309 116.888 192.217 119.796C191.21 115.077 190.459 110.307 189.967 105.507Z" fill="#7A7A7A"/>
<path opacity="0.2" d="M205.114 266.449L205.409 273.282H211.137L210.842 266.449H205.114Z" fill="#7A7A7A"/>
<path opacity="0.2" d="M246.171 258.156L240.896 259.973L243.722 266.415L248.997 264.597L246.171 258.156Z" fill="#7A7A7A"/>
<path d="M207.961 67.4475C209.223 72.9835 210.238 76.1597 208.311 79.7955C205.416 85.2081 197.966 84.6867 195.078 79.6377C192.478 75.0896 190.845 66.8027 195.537 63.0708C196.566 62.2452 197.788 61.6956 199.088 61.4739C200.388 61.2522 201.723 61.3659 202.966 61.804C204.21 62.2422 205.322 62.9905 206.196 63.978C207.07 64.9655 207.677 66.1597 207.961 67.4475Z" fill="#FFC3BD"/>
<path d="M196.841 72.8738L194.735 74.1635L194.934 66.9605C193.576 67.0188 192.236 66.6309 191.12 65.856C191.881 65.1288 203.735 60.9785 207.433 61.6988C207.817 61.5411 208.283 60.8276 208.283 60.8276C208.283 60.8276 208.427 61.7263 207.803 62.0693C208.256 61.9801 209.388 62.1996 209.703 62.865C209.184 62.7232 208.632 62.7545 208.132 62.9542C208.132 62.9542 212.248 63.5785 210.787 69.286C209.148 75.5766 209.69 79.1918 209.69 79.1918C209.69 79.1918 206.63 81.5585 203.968 81.1195C201.128 77.9913 197.026 74.2321 196.841 72.8738Z" fill="#263238"/>
<path d="M192.807 65.2866C189.466 65.2866 188.266 63.6539 187.408 62.2819C189.809 62.0281 194.81 60.4846 198.521 60.2239C202.233 59.9633 206.301 60.6561 205.073 62.2819C203.845 63.9078 192.807 65.2866 192.807 65.2866Z" fill="#263238"/>
<path d="M193.541 63.798C190.797 63.4138 188.122 60.8276 190.18 58.3512C190.941 60.1691 196.079 59.9564 199.729 59.1949C204.531 58.1934 207.858 59.8123 206.157 63.0846C205.224 64.875 193.541 63.798 193.541 63.798Z" fill="#263238"/>
<path d="M199.804 71.2342C200.197 72.5888 200.134 74.0348 199.626 75.3502C198.94 77.0721 197.417 76.7222 196.621 75.2336C195.935 73.8616 195.414 71.3714 196.58 70.1298C197.746 68.8881 199.31 69.6084 199.804 71.2342Z" fill="#FFC3BD"/>
<path d="M208.345 139.635C208.345 139.635 213.257 181.447 216.824 197.829C220.727 215.774 239.983 264.7 239.983 264.7L249.587 261.38C249.587 261.38 237.239 224.542 233.96 199.455C231.443 180.192 227.855 136.747 227.855 136.747L208.345 139.635Z" fill="#263238"/>
<path d="M237.527 261.627C237.479 261.627 239.496 265.743 239.496 265.743L250.712 262.1L249.395 258.752L237.527 261.627Z" fill="black"/>
<path opacity="0.3" d="M211.055 161.087C212.591 172.707 214.56 186.469 216.289 195.256C218.834 181.79 219.431 164.784 211.055 161.087Z" fill="#7A7A7A"/>
<path d="M197.602 141.22C197.602 141.22 193.527 180.5 194.172 197.952C194.817 216.104 203.296 271.958 203.296 271.958H212.989C212.989 271.958 211.206 217.16 211.617 199.338C212.091 179.903 219.376 138.003 219.376 138.003L197.602 141.22Z" fill="#263238"/>
<path d="M201.41 268.096C201.368 268.096 201.958 272.116 201.958 272.116H213.751L214.073 268.528L201.41 268.096Z" fill="black"/>
<path d="M195.723 101.885C194.652 103.586 193.569 105.116 192.443 106.687C191.318 108.258 190.139 109.774 188.938 111.283C186.491 114.345 183.839 117.237 181.001 119.94C180.233 120.626 179.526 121.312 178.696 121.937L178.092 122.424L177.791 122.664C177.681 122.753 177.633 122.801 177.406 122.966C176.727 123.45 175.98 123.834 175.191 124.104C173.968 124.522 172.689 124.753 171.397 124.79C170.304 124.827 169.21 124.779 168.125 124.646C164.157 124.126 160.286 123.031 156.634 121.395L157.821 117.279C161.331 117.695 164.866 117.865 168.399 117.786C169.181 117.745 169.959 117.661 170.732 117.532C171.313 117.447 171.878 117.271 172.405 117.011C172.57 116.922 172.659 116.833 172.639 116.812C172.618 116.792 172.728 116.723 172.79 116.661L173.023 116.449L173.482 116.016C174.1 115.468 174.683 114.802 175.287 114.198C176.473 112.922 177.653 111.612 178.771 110.22C179.89 108.827 181.022 107.428 182.119 105.987C183.217 104.546 184.28 103.085 185.35 101.624C186.42 100.163 187.463 98.6262 188.451 97.2062L195.723 101.885Z" fill="#FFC3BD"/>
<path d="M199.708 100.067C202.013 107.613 188.629 115.975 188.629 115.975L179.931 104.896C181.892 101.243 184.312 97.8565 187.134 94.8189C193.054 88.3774 197.952 94.325 199.708 100.067Z" fill="black"/>
<g opacity="0.3">
<path opacity="0.3" d="M199.708 100.067C202.013 107.613 188.629 115.975 188.629 115.975L179.931 104.896C181.892 101.243 184.312 97.8565 187.134 94.8189C193.054 88.3774 197.952 94.325 199.708 100.067Z" fill="white"/>
</g>
<path d="M159.838 117.532L152.793 116.243L153.534 122.334C153.534 122.334 157.197 124.392 159.852 121.175L159.838 117.532Z" fill="#FFC3BD"/>
<path d="M150.076 117.615L151.599 122.012L153.52 122.334L152.779 116.243L150.076 117.615Z" fill="#FFC3BD"/>
</svg>
