<svg width="25" height="25" viewBox="0 0 25 25" fill="none" xmlns="http://www.w3.org/2000/svg">
<path d="M15.1356 9.86458L9.86475 15.1354C9.18766 14.4583 8.771 13.5312 8.771 12.5C8.771 10.4375 10.4377 8.77083 12.5002 8.77083C13.5314 8.77083 14.4585 9.1875 15.1356 9.86458Z" stroke="#979899" stroke-width="1.5" stroke-linecap="round" stroke-linejoin="round"/>
<path d="M18.5623 6.01042C16.7394 4.63542 14.6561 3.88542 12.4998 3.88542C8.82275 3.88542 5.39567 6.05209 3.01025 9.80209C2.07275 11.2708 2.07275 13.7396 3.01025 15.2083C3.83317 16.5 4.7915 17.6146 5.83317 18.5104" stroke="#979899" stroke-width="1.5" stroke-linecap="round" stroke-linejoin="round"/>
<path d="M8.771 20.3438C9.9585 20.8438 11.2189 21.1146 12.5002 21.1146C16.1772 21.1146 19.6043 18.9479 21.9897 15.1979C22.9272 13.7292 22.9272 11.2604 21.9897 9.79167C21.646 9.25 21.271 8.73959 20.8856 8.26042" stroke="#979899" stroke-width="1.5" stroke-linecap="round" stroke-linejoin="round"/>
<path d="M16.1562 13.2292C15.8854 14.6979 14.6875 15.8958 13.2188 16.1667" stroke="#979899" stroke-width="1.5" stroke-linecap="round" stroke-linejoin="round"/>
<path d="M9.86475 15.1354L2.0835 22.9167" stroke="#979899" stroke-width="1.5" stroke-linecap="round" stroke-linejoin="round"/>
<path d="M22.9165 2.08333L15.1353 9.86458" stroke="#979899" stroke-width="1.5" stroke-linecap="round" stroke-linejoin="round"/>
</svg>
