<svg width="25" height="25" viewBox="0 0 25 25" fill="none" xmlns="http://www.w3.org/2000/svg">
<path d="M8.85409 19.7917H8.33325C4.16659 19.7917 2.08325 18.75 2.08325 13.5417V8.33333C2.08325 4.16666 4.16659 2.08333 8.33325 2.08333H16.6666C20.8333 2.08333 22.9166 4.16666 22.9166 8.33333V13.5417C22.9166 17.7083 20.8333 19.7917 16.6666 19.7917H16.1458C15.8228 19.7917 15.5103 19.9479 15.3124 20.2083L13.7499 22.2917C13.0624 23.2083 11.9374 23.2083 11.2499 22.2917L9.68742 20.2083C9.52075 19.9792 9.13534 19.7917 8.85409 19.7917Z" stroke="#05161C" stroke-width="1.5" stroke-miterlimit="10" stroke-linecap="round" stroke-linejoin="round"/>
<path d="M7.29175 8.33333H17.7084" stroke="#05161C" stroke-width="1.5" stroke-linecap="round" stroke-linejoin="round"/>
<path d="M7.29175 13.5417H13.5417" stroke="#05161C" stroke-width="1.5" stroke-linecap="round" stroke-linejoin="round"/>
</svg>
