<svg width="24" height="24" viewBox="0 0 24 24" fill="none" xmlns="http://www.w3.org/2000/svg">
<circle cx="12" cy="12" r="11" fill="#F9F9F9"/>
<circle cx="12" cy="12" r="11.5" stroke="#E3E3E3" stroke-opacity="0.94"/>
<path d="M10.25 16.875C10.25 17.5625 10.8125 18.125 11.5 18.125C12.1875 18.125 12.75 17.5625 12.75 16.875C12.75 16.1875 12.1875 15.625 11.5 15.625C10.8125 15.625 10.25 16.1875 10.25 16.875Z" fill="black"/>
<path d="M10.25 8.125C10.25 8.8125 10.8125 9.375 11.5 9.375C12.1875 9.375 12.75 8.8125 12.75 8.125C12.75 7.4375 12.1875 6.875 11.5 6.875C10.8125 6.875 10.25 7.4375 10.25 8.125Z" fill="black"/>
<path d="M10.25 12.5C10.25 13.1875 10.8125 13.75 11.5 13.75C12.1875 13.75 12.75 13.1875 12.75 12.5C12.75 11.8125 12.1875 11.25 11.5 11.25C10.8125 11.25 10.25 11.8125 10.25 12.5Z" fill="black"/>
</svg>
