<svg width="35" height="35" viewBox="0 0 35 35" fill="none" xmlns="http://www.w3.org/2000/svg">
<path d="M21.0438 27.4459C20.7667 27.4459 20.4896 27.3438 20.2709 27.125C19.8479 26.7021 19.8479 26.0021 20.2709 25.5792L28.35 17.5L20.2709 9.42088C19.8479 8.99797 19.8479 8.29797 20.2709 7.87505C20.6938 7.45213 21.3938 7.45213 21.8167 7.87505L30.6688 16.7271C31.0917 17.15 31.0917 17.85 30.6688 18.273L21.8167 27.125C21.5979 27.3438 21.3209 27.4459 21.0438 27.4459Z" fill="#BEBEBE"/>
<path d="M29.6479 18.5938H5.10419C4.50627 18.5938 4.01044 18.0979 4.01044 17.5C4.01044 16.9021 4.50627 16.4062 5.10419 16.4062H29.6479C30.2459 16.4062 30.7417 16.9021 30.7417 17.5C30.7417 18.0979 30.2459 18.5938 29.6479 18.5938Z" fill="#BEBEBE"/>
</svg>
