<svg width="25" height="24" viewBox="0 0 25 24" fill="none" xmlns="http://www.w3.org/2000/svg">
<path d="M12.0355 20.53C9.70549 20.53 7.37549 20.16 5.16549 19.42C4.32549 19.13 3.68549 18.54 3.40549 17.77C3.11549 17 3.21549 16.15 3.67549 15.39L4.82549 13.48C5.06549 13.08 5.28549 12.28 5.28549 11.81V8.92C5.28549 5.2 8.31549 2.17 12.0355 2.17C15.7555 2.17 18.7855 5.2 18.7855 8.92V11.81C18.7855 12.27 19.0055 13.08 19.2455 13.49L20.3855 15.39C20.8155 16.11 20.8955 16.98 20.6055 17.77C20.3155 18.56 19.6855 19.16 18.8955 19.42C16.6955 20.16 14.3655 20.53 12.0355 20.53ZM12.0355 3.67C9.14549 3.67 6.78549 6.02 6.78549 8.92V11.81C6.78549 12.54 6.48549 13.62 6.11549 14.25L4.96549 16.16C4.74549 16.53 4.68549 16.92 4.81549 17.25C4.93549 17.59 5.23549 17.85 5.64549 17.99C9.82549 19.39 14.2555 19.39 18.4355 17.99C18.7955 17.87 19.0755 17.6 19.2055 17.24C19.3355 16.88 19.3055 16.49 19.1055 16.16L17.9555 14.25C17.5755 13.6 17.2855 12.53 17.2855 11.8V8.92C17.2855 6.02 14.9355 3.67 12.0355 3.67Z" fill="#171717"/>
<path d="M13.8957 3.93999C13.8257 3.93999 13.7557 3.92999 13.6857 3.90999C13.3957 3.82999 13.1157 3.76999 12.8457 3.72999C11.9957 3.61999 11.1757 3.67999 10.4057 3.90999C10.1257 3.99999 9.82574 3.90999 9.63574 3.69999C9.44574 3.48999 9.38574 3.18999 9.49574 2.91999C9.90574 1.86999 10.9057 1.17999 12.0457 1.17999C13.1857 1.17999 14.1857 1.85999 14.5957 2.91999C14.6957 3.18999 14.6457 3.48999 14.4557 3.69999C14.3057 3.85999 14.0957 3.93999 13.8957 3.93999Z" fill="#171717"/>
<path d="M12.0356 22.81C11.0456 22.81 10.0856 22.41 9.38564 21.71C8.68564 21.01 8.28564 20.05 8.28564 19.06H9.78564C9.78564 19.65 10.0256 20.23 10.4456 20.65C10.8656 21.07 11.4456 21.31 12.0356 21.31C13.2756 21.31 14.2856 20.3 14.2856 19.06H15.7856C15.7856 21.13 14.1056 22.81 12.0356 22.81Z" fill="#171717"/>
</svg>
