<svg width="33" height="40" viewBox="0 0 33 40" fill="none" xmlns="http://www.w3.org/2000/svg">
<path d="M31.6971 39.6168L31.697 39.6169C31.3215 39.8153 30.8682 39.7895 30.5166 39.5495L25.8748 36.3812L25.7303 36.2826L25.5881 36.3846L21.1993 39.5344L21.1989 39.5347C20.767 39.8459 20.1779 39.8171 19.7778 39.4659L19.7775 39.4655L16.4435 36.5502L16.279 36.4063L16.1144 36.5502L12.7805 39.4655L12.7801 39.4659C12.38 39.8171 11.7909 39.8459 11.3592 39.5347L11.3588 39.5344L6.96991 36.3846L6.82774 36.2826L6.68321 36.3812L2.04141 39.5495C1.6899 39.7895 1.23656 39.8153 0.860974 39.6168C0.485023 39.4182 0.25 39.0286 0.25 38.6044V3.25581C0.25 3.2558 0.25 3.2558 0.25 3.2558C0.250073 1.59657 1.59494 0.25 3.25587 0.25H29.3022C30.9631 0.25 32.308 1.59658 32.308 3.2558V38.6044C32.308 39.0287 32.073 39.4182 31.6971 39.6168ZM2.54076 35.9626V36.436L2.93173 36.1691L6.19869 33.9384L6.19894 33.9382C6.59574 33.6666 7.12093 33.6726 7.5118 33.9536L7.51189 33.9536L11.7947 37.0289L11.9558 37.1446L12.1051 37.014L15.5246 34.0224L15.5248 34.0223C15.9569 33.6435 16.6012 33.6435 17.0333 34.0223L17.0335 34.0224L20.453 37.014L20.6023 37.1446L20.7635 37.0289L25.0462 33.9536L25.0463 33.9536C25.4372 33.6726 25.9624 33.6666 26.3592 33.9382L26.3594 33.9384L29.6264 36.1691L30.0174 36.436V35.9626V3.2558C30.0174 2.86098 29.6971 2.54068 29.3022 2.54068H3.25587C2.86106 2.54068 2.54076 2.86098 2.54076 3.2558V35.9626ZM17.1981 33.8342L20.6176 36.8258L24.9004 33.7506L17.1981 33.8342Z" fill="#05161C" stroke="#F3F5F7" stroke-width="0.5"/>
<path d="M8.83724 9.9825C8.20508 9.9825 7.69189 9.46932 7.69189 8.83716C7.69189 8.205 8.20508 7.69182 8.83724 7.69182H23.7209C24.353 7.69182 24.8662 8.205 24.8662 8.83716C24.8662 9.46932 24.353 9.9825 23.7209 9.9825H8.83724Z" fill="#05161C" stroke="#F3F5F7" stroke-width="0.5"/>
<path d="M8.83724 17.4243C8.20508 17.4243 7.69189 16.9111 7.69189 16.279C7.69189 15.6468 8.20508 15.1336 8.83724 15.1336H23.7209C24.353 15.1336 24.8662 15.6468 24.8662 16.279C24.8662 16.9111 24.353 17.4243 23.7209 17.4243H8.83724Z" fill="#05161C" stroke="#F3F5F7" stroke-width="0.5"/>
<path d="M8.83724 24.8661C8.20508 24.8661 7.69189 24.353 7.69189 23.7208C7.69189 23.0886 8.20508 22.5755 8.83724 22.5755H16.2791C16.9112 22.5755 17.4244 23.0886 17.4244 23.7208C17.4244 24.353 16.9112 24.8661 16.2791 24.8661H8.83724Z" fill="#05161C" stroke="#F3F5F7" stroke-width="0.5"/>
</svg>
