<svg width="70" height="70" viewBox="0 0 70 70" fill="none" xmlns="http://www.w3.org/2000/svg">
<path d="M28.0583 46.6667L32.4333 51.0417L41.9125 42.2917" stroke="#05161C" stroke-width="2.38298" stroke-linecap="round" stroke-linejoin="round"/>
<path d="M25.6958 5.83337L15.1375 16.4209" stroke="#05161C" stroke-width="2.38298" stroke-miterlimit="10" stroke-linecap="round" stroke-linejoin="round"/>
<path d="M44.3042 5.83337L54.8625 16.4209" stroke="#05161C" stroke-width="2.38298" stroke-miterlimit="10" stroke-linecap="round" stroke-linejoin="round"/>
<path d="M5.83333 22.8958C5.83333 17.5 8.72083 17.0625 12.3083 17.0625H57.6917C61.2792 17.0625 64.1667 17.5 64.1667 22.8958C64.1667 29.1667 61.2792 28.7292 57.6917 28.7292H12.3083C8.72083 28.7292 5.83333 29.1667 5.83333 22.8958Z" stroke="#05161C" stroke-width="2.38298"/>
<path d="M10.2083 29.1667L14.3208 54.3667C15.2542 60.0251 17.5 64.1667 25.8417 64.1667H43.4292C52.5 64.1667 53.8417 60.2001 54.8917 54.7167L59.7917 29.1667" stroke="#292D32" stroke-width="2.38298" stroke-linecap="round"/>
</svg>
