<svg width="14" height="15" viewBox="0 0 14 15" fill="none" xmlns="http://www.w3.org/2000/svg">
<path d="M8.75002 1.6945V7.52784C8.75002 8.1695 8.22502 8.6945 7.58335 8.6945H1.16669V4.02784C1.16669 2.73867 2.21085 1.6945 3.50002 1.6945H8.75002Z" stroke="black" stroke-width="0.9" stroke-linecap="round" stroke-linejoin="round"/>
<path d="M12.8334 8.6945V10.4445C12.8334 11.4128 12.0517 12.1945 11.0834 12.1945H10.5C10.5 11.5528 9.97502 11.0278 9.33335 11.0278C8.69169 11.0278 8.16669 11.5528 8.16669 12.1945H5.83335C5.83335 11.5528 5.30835 11.0278 4.66669 11.0278C4.02502 11.0278 3.50002 11.5528 3.50002 12.1945H2.91669C1.94835 12.1945 1.16669 11.4128 1.16669 10.4445V8.6945H7.58335C8.22502 8.6945 8.75002 8.1695 8.75002 7.52784V3.4445H9.82335C10.2434 3.4445 10.6283 3.67201 10.8383 4.03368L11.8359 5.77784H11.0834C10.7625 5.77784 10.5 6.04034 10.5 6.36117V8.11117C10.5 8.432 10.7625 8.6945 11.0834 8.6945H12.8334Z" stroke="black" stroke-width="0.9" stroke-linecap="round" stroke-linejoin="round"/>
<path d="M4.66667 13.3612C5.311 13.3612 5.83333 12.8388 5.83333 12.1945C5.83333 11.5502 5.311 11.0278 4.66667 11.0278C4.02233 11.0278 3.5 11.5502 3.5 12.1945C3.5 12.8388 4.02233 13.3612 4.66667 13.3612Z" stroke="black" stroke-width="0.9" stroke-linecap="round" stroke-linejoin="round"/>
<path d="M9.33335 13.3612C9.97769 13.3612 10.5 12.8388 10.5 12.1945C10.5 11.5502 9.97769 11.0278 9.33335 11.0278C8.68902 11.0278 8.16669 11.5502 8.16669 12.1945C8.16669 12.8388 8.68902 13.3612 9.33335 13.3612Z" stroke="black" stroke-width="0.9" stroke-linecap="round" stroke-linejoin="round"/>
<path d="M12.8333 7.52783V8.6945H11.0833C10.7625 8.6945 10.5 8.432 10.5 8.11117V6.36117C10.5 6.04033 10.7625 5.77783 11.0833 5.77783H11.8358L12.8333 7.52783Z" stroke="black" stroke-width="0.9" stroke-linecap="round" stroke-linejoin="round"/>
</svg>
