<svg width="60" height="60" viewBox="0 0 60 60" fill="none" xmlns="http://www.w3.org/2000/svg">
<path d="M27.5495 48.75H18.7495C17.1995 48.75 15.8245 48.7 14.5995 48.525C8.02451 47.8 6.24951 44.7 6.24951 36.25V23.75C6.24951 15.3 8.02451 12.2 14.5995 11.475C15.8245 11.3 17.1995 11.25 18.7495 11.25H27.3995" stroke="#05161C" stroke-width="3.6" stroke-linecap="round" stroke-linejoin="round"/>
<path d="M37.5503 11.25H41.2503C42.8003 11.25 44.1753 11.3 45.4003 11.475C51.9753 12.2 53.7503 15.3 53.7503 23.75V36.25C53.7503 44.7 51.9753 47.8 45.4003 48.525C44.1753 48.7 42.8003 48.75 41.2503 48.75H37.5503" stroke="#292929" stroke-width="3.6" stroke-linecap="round" stroke-linejoin="round"/>
<path d="M37.5 5.00009V55.0001" stroke="#05161C" stroke-width="3.6" stroke-linecap="round" stroke-linejoin="round"/>
<path d="M27.7358 29.9999H27.7582" stroke="#292D32" stroke-width="4.8" stroke-linecap="round" stroke-linejoin="round"/>
<path d="M17.7363 29.9999H17.7587" stroke="#292D32" stroke-width="4.8" stroke-linecap="round" stroke-linejoin="round"/>
</svg>
