<svg width="25" height="25" viewBox="0 0 25 25" fill="none" xmlns="http://www.w3.org/2000/svg">
<path d="M6.25 10.4167V8.33333C6.25 4.88541 7.29167 2.08333 12.5 2.08333C17.7083 2.08333 18.75 4.88541 18.75 8.33333V10.4167" stroke="#05161C" stroke-width="1.5" stroke-linecap="round" stroke-linejoin="round"/>
<path d="M12.4997 19.2708C13.9379 19.2708 15.1038 18.1049 15.1038 16.6667C15.1038 15.2284 13.9379 14.0625 12.4997 14.0625C11.0614 14.0625 9.89551 15.2284 9.89551 16.6667C9.89551 18.1049 11.0614 19.2708 12.4997 19.2708Z" stroke="#05161C" stroke-width="1.5" stroke-linecap="round" stroke-linejoin="round"/>
<path d="M17.708 22.9167H7.29134C3.12467 22.9167 2.08301 21.875 2.08301 17.7083V15.625C2.08301 11.4583 3.12467 10.4167 7.29134 10.4167H17.708C21.8747 10.4167 22.9163 11.4583 22.9163 15.625V17.7083C22.9163 21.875 21.8747 22.9167 17.708 22.9167Z" stroke="#05161C" stroke-width="1.5" stroke-linecap="round" stroke-linejoin="round"/>
</svg>
