<svg width="25" height="25" viewBox="0 0 25 25" fill="none" xmlns="http://www.w3.org/2000/svg">
<path d="M12.6667 11.3229C12.5625 11.3125 12.4375 11.3125 12.3229 11.3229C9.84375 11.2396 7.875 9.20833 7.875 6.70833C7.875 4.15625 9.9375 2.08333 12.5 2.08333C15.0521 2.08333 17.125 4.15625 17.125 6.70833C17.1146 9.20833 15.1458 11.2396 12.6667 11.3229Z" stroke="#05161C" stroke-width="1.5" stroke-linecap="round" stroke-linejoin="round"/>
<path d="M7.45837 15.1667C4.93754 16.8542 4.93754 19.6042 7.45837 21.2813C10.323 23.1979 15.0209 23.1979 17.8855 21.2813C20.4063 19.5938 20.4063 16.8438 17.8855 15.1667C15.0313 13.2604 10.3334 13.2604 7.45837 15.1667Z" stroke="#05161C" stroke-width="1.5" stroke-linecap="round" stroke-linejoin="round"/>
</svg>
