<svg width="14" height="15" viewBox="0 0 14 15" fill="none" xmlns="http://www.w3.org/2000/svg">
<path d="M12.8158 11.1647C12.8158 11.3747 12.7692 11.5905 12.67 11.8005C12.5708 12.0105 12.4425 12.2088 12.2733 12.3955C11.9875 12.7105 11.6725 12.938 11.3167 13.0838C10.9667 13.2297 10.5875 13.3055 10.1792 13.3055C9.58416 13.3055 8.94833 13.1655 8.2775 12.8797C7.60666 12.5938 6.93583 12.2088 6.27083 11.7247C5.6 11.2347 4.96416 10.6922 4.3575 10.0913C3.75666 9.48467 3.21416 8.84884 2.73 8.18384C2.25166 7.51884 1.86666 6.85384 1.58666 6.19467C1.30666 5.52967 1.16666 4.89384 1.16666 4.28717C1.16666 3.89051 1.23666 3.51134 1.37666 3.16134C1.51666 2.80551 1.73833 2.47884 2.0475 2.18717C2.42083 1.81967 2.82916 1.63884 3.26083 1.63884C3.42416 1.63884 3.5875 1.67384 3.73333 1.74384C3.885 1.81384 4.01916 1.91884 4.12416 2.07051L5.4775 3.97801C5.5825 4.12384 5.65833 4.25801 5.71083 4.38634C5.76333 4.50884 5.7925 4.63134 5.7925 4.74217C5.7925 4.88217 5.75166 5.02217 5.67 5.15634C5.59416 5.29051 5.48333 5.43051 5.34333 5.57051L4.9 6.03134C4.83583 6.09551 4.80666 6.17134 4.80666 6.26467C4.80666 6.31134 4.8125 6.35217 4.82416 6.39884C4.84166 6.44551 4.85916 6.48051 4.87083 6.51551C4.97583 6.70801 5.15666 6.95884 5.41333 7.26217C5.67583 7.56551 5.95583 7.87467 6.25916 8.18384C6.57416 8.49301 6.8775 8.77884 7.18666 9.04134C7.49 9.29801 7.74083 9.47301 7.93916 9.57801C7.96833 9.58967 8.00333 9.60717 8.04416 9.62467C8.09083 9.64217 8.1375 9.64801 8.19 9.64801C8.28916 9.64801 8.365 9.61301 8.42916 9.54884L8.8725 9.11134C9.01833 8.96551 9.15833 8.85467 9.2925 8.78467C9.42666 8.70301 9.56083 8.66217 9.70666 8.66217C9.8175 8.66217 9.93416 8.68551 10.0625 8.73801C10.1908 8.79051 10.325 8.86634 10.4708 8.96551L12.4017 10.3363C12.5533 10.4413 12.6583 10.5638 12.7225 10.7097C12.7808 10.8555 12.8158 11.0013 12.8158 11.1647Z" stroke="#171717" stroke-width="0.8" stroke-miterlimit="10"/>
</svg>
