<svg width="15" height="15" viewBox="0 0 15 15" fill="none" xmlns="http://www.w3.org/2000/svg">
<path d="M6.25 11.875C6.25 12.5625 6.8125 13.125 7.5 13.125C8.1875 13.125 8.75 12.5625 8.75 11.875C8.75 11.1875 8.1875 10.625 7.5 10.625C6.8125 10.625 6.25 11.1875 6.25 11.875Z" fill="black"/>
<path d="M6.25 3.125C6.25 3.8125 6.8125 4.375 7.5 4.375C8.1875 4.375 8.75 3.8125 8.75 3.125C8.75 2.4375 8.1875 1.875 7.5 1.875C6.8125 1.875 6.25 2.4375 6.25 3.125Z" fill="black"/>
<path d="M6.25 7.5C6.25 8.1875 6.8125 8.75 7.5 8.75C8.1875 8.75 8.75 8.1875 8.75 7.5C8.75 6.8125 8.1875 6.25 7.5 6.25C6.8125 6.25 6.25 6.8125 6.25 7.5Z" fill="black"/>
</svg>
