<svg width="330" height="330" viewBox="0 0 330 330" fill="none" xmlns="http://www.w3.org/2000/svg">
<path d="M330 252.383H0V252.548H330V252.383Z" fill="#EBEBEB"/>
<path d="M296.935 263.006H275.074V263.171H296.935V263.006Z" fill="#EBEBEB"/>
<path d="M218.605 264.797H212.868V264.962H218.605V264.797Z" fill="#EBEBEB"/>
<path d="M274.413 256.877H261.747V257.042H274.413V256.877Z" fill="#EBEBEB"/>
<path d="M63.1304 257.986H34.623V258.151H63.1304V257.986Z" fill="#EBEBEB"/>
<path d="M73.1866 257.986H69.0068V258.151H73.1866V257.986Z" fill="#EBEBEB"/>
<path d="M148.597 260.773H86.771V260.938H148.597V260.773Z" fill="#EBEBEB"/>
<path d="M156.429 222.948H28.9841C26.9071 222.948 25.2168 221.258 25.2168 219.181V40.0356C25.2168 37.9586 26.9071 36.2683 28.9841 36.2683H156.429C158.506 36.2683 160.196 37.9586 160.196 40.0356V219.181C160.196 221.258 158.506 222.948 156.429 222.948ZM28.9841 36.434C26.9975 36.434 25.3818 38.0497 25.3818 40.0363V219.181C25.3818 221.168 26.9975 222.784 28.9841 222.784H156.429C158.415 222.784 160.031 221.168 160.031 219.181V40.0356C160.031 38.0497 158.415 36.4333 156.429 36.4333L28.9841 36.434Z" fill="#EBEBEB"/>
<path d="M299.184 222.948H171.74C169.663 222.948 167.973 221.258 167.973 219.181V40.0356C167.973 37.9586 169.663 36.2683 171.74 36.2683H299.184C301.262 36.2683 302.952 37.9586 302.952 40.0356V219.181C302.952 221.258 301.262 222.948 299.184 222.948ZM171.74 36.434C169.754 36.434 168.138 38.0497 168.138 40.0363V219.181C168.138 221.168 169.754 222.784 171.74 222.784H299.184C301.171 222.784 302.787 221.168 302.787 219.181V40.0356C302.787 38.0497 301.171 36.4333 299.184 36.4333L171.74 36.434Z" fill="#EBEBEB"/>
<path d="M166.328 104.737C165.257 99.569 163.209 94.7635 160.408 90.496L165.507 84.3368L154.605 73.4343L148.445 78.5328C144.178 75.7331 139.372 73.6844 134.204 72.6126L133.457 64.6735H118.039L117.291 72.6126C112.123 73.6844 107.317 75.7331 103.05 78.5328L96.8899 73.4343L85.9874 84.3368L91.0866 90.4966C88.2862 94.7635 86.2382 99.569 85.1657 104.737L77.2266 105.486V120.903L85.1657 121.651C86.2375 126.819 88.2855 131.623 91.0866 135.891L85.9874 142.051L96.8899 152.954L103.05 147.854C107.317 150.656 112.123 152.703 117.291 153.775L118.039 161.714H133.457L134.204 153.775C139.372 152.704 144.178 150.656 148.445 147.854L154.605 152.954L165.507 142.051L160.408 135.892C163.209 131.623 165.257 126.819 166.328 121.651L174.266 120.903V105.486L166.328 104.737ZM146.62 113.194C146.62 124.721 137.275 134.066 125.747 134.066C114.22 134.066 104.875 124.721 104.875 113.194C104.875 101.666 114.22 92.3222 125.747 92.3222C137.275 92.3222 146.62 101.667 146.62 113.194Z" fill="#F0F0F0"/>
<path d="M210.548 178.732L211.085 184.436H222.163L222.7 178.733C226.414 177.962 229.867 176.491 232.932 174.478L237.358 178.143L245.191 170.31L241.527 165.884C243.54 162.818 245.01 159.365 245.781 155.653L251.484 155.115V144.038L245.781 143.5C245.011 139.786 243.54 136.333 241.527 133.268L245.191 128.842L237.358 121.008L232.932 124.671C229.866 122.66 226.414 121.187 222.7 120.417L222.163 114.715L211.085 114.713L210.548 120.418C206.835 121.189 203.382 122.66 200.315 124.671L195.89 121.008L188.056 128.842L191.72 133.268C189.708 136.334 188.236 139.785 187.466 143.5L181.763 144.038V155.115L187.467 155.653C188.237 159.365 189.708 162.818 191.721 165.884L188.057 170.31L195.891 178.143L200.316 174.478C203.382 176.491 206.834 177.962 210.548 178.732ZM216.623 164.572C208.342 164.572 201.627 157.858 201.627 149.576C201.627 141.294 208.342 134.58 216.623 134.58C224.906 134.58 231.62 141.294 231.62 149.576C231.62 157.858 224.906 164.572 216.623 164.572Z" fill="#F0F0F0"/>
<path d="M151.722 256.306H164.911L165.551 249.515C169.972 248.598 174.082 246.845 177.733 244.45L183.001 248.812L192.327 239.487L187.966 234.218C190.361 230.567 192.113 226.457 193.03 222.035L199.821 221.396V208.207L193.03 207.567C192.113 203.146 190.361 199.036 187.966 195.385L192.327 190.116L183.001 180.791L177.733 185.152C174.082 182.757 169.972 181.004 165.551 180.087L164.911 173.296H151.722L151.083 180.087C146.661 181.004 142.551 182.757 138.9 185.152L133.631 180.791L124.305 190.116L128.668 195.385C126.272 199.036 124.519 203.146 123.603 207.567L116.812 208.207V221.396L123.603 222.035C124.519 226.457 126.272 230.568 128.668 234.217L124.305 239.487L133.631 248.812L138.9 244.45C142.552 246.845 146.662 248.598 151.083 249.515L151.722 256.306ZM158.316 232.655C148.455 232.655 140.462 224.661 140.462 214.8C140.462 204.941 148.455 196.947 158.316 196.947C168.177 196.947 176.17 204.941 176.17 214.8C176.17 224.662 168.177 232.655 158.316 232.655Z" fill="#F0F0F0"/>
<path d="M221.011 96.0459C222.51 98.6424 221.62 101.962 219.024 103.46C216.428 104.959 213.108 104.069 211.61 101.472C210.111 98.876 211.002 95.5569 213.597 94.058C216.193 92.5598 219.512 93.4501 221.011 96.0459Z" fill="#F0F0F0"/>
<path d="M214.943 98.2827C215.111 98.5731 215.447 98.5559 215.857 98.4563L215.236 97.3805C214.845 97.6947 214.789 98.0167 214.943 98.2827Z" fill="#E0E0E0"/>
<path d="M216.849 99.0291L217.466 100.099C217.87 99.7775 217.938 99.464 217.788 99.204C217.617 98.9077 217.27 98.9222 216.849 99.0291Z" fill="#E0E0E0"/>
<path d="M213.994 94.747C211.778 96.0261 211.018 98.8595 212.298 101.076C213.577 103.292 216.41 104.051 218.627 102.772C220.843 101.493 221.603 98.6595 220.323 96.4432C219.044 94.2276 216.21 93.468 213.994 94.747ZM217.847 100.758L218.237 101.435L217.742 101.721L217.354 101.05C216.74 101.356 216.055 101.494 215.583 101.403L215.503 100.636C215.938 100.706 216.494 100.62 216.977 100.397L216.28 99.1882C215.515 99.4119 214.669 99.6099 214.184 98.7691C213.828 98.1526 213.965 97.3567 214.856 96.7218L214.462 96.0387L214.958 95.7522L215.345 96.4234C215.806 96.1898 216.336 96.0611 216.785 96.0835L216.89 96.8373C216.461 96.8346 216.063 96.9277 215.722 97.0762L216.427 98.2972C217.192 98.0728 218.046 97.8622 218.531 98.7031C218.886 99.3195 218.739 100.113 217.847 100.758Z" fill="#E0E0E0"/>
<path d="M80.9868 238.011C79.4978 242.657 74.5241 245.216 69.8777 243.727C65.2313 242.238 62.6718 237.264 64.1614 232.618C65.6504 227.971 70.6241 225.412 75.2705 226.901C79.9163 228.391 82.4758 233.365 80.9868 238.011Z" fill="#F0F0F0"/>
<path d="M71.653 233.146C71.4867 233.666 71.8754 234.053 72.4443 234.437L73.0614 232.511C72.2543 232.385 71.8055 232.67 71.653 233.146Z" fill="#E0E0E0"/>
<path d="M72.8384 236.258L72.2246 238.173C73.0529 238.307 73.5057 238.047 73.6548 237.581C73.8244 237.051 73.4284 236.65 72.8384 236.258Z" fill="#E0E0E0"/>
<path d="M74.8753 228.134C70.9094 226.862 66.6643 229.047 65.3931 233.013C64.122 236.979 66.3066 241.224 70.2725 242.495C74.2384 243.766 78.4836 241.582 79.7547 237.616C81.0259 233.65 78.8413 229.405 74.8753 228.134ZM71.8466 239.352L71.4585 240.564L70.5715 240.28L70.9563 239.079C69.9168 238.674 69 237.999 68.5935 237.331L69.4303 236.395C69.8217 236.997 70.5332 237.572 71.3305 237.911L72.0241 235.747C70.9173 235.07 69.7544 234.268 70.2362 232.764C70.59 231.661 71.6988 230.954 73.4385 231.333L73.8306 230.111L74.7176 230.395L74.3328 231.596C75.1195 231.896 75.8548 232.394 76.3174 232.96L75.5235 233.911C75.0575 233.391 74.511 233.013 73.9579 232.765L73.2577 234.95C74.3652 235.627 75.5525 236.425 75.0707 237.929C74.7169 239.032 73.6009 239.723 71.8466 239.352Z" fill="#E0E0E0"/>
<path d="M287.935 182.838C290.434 187.028 289.063 192.451 284.873 194.95C280.683 197.449 275.26 196.078 272.761 191.887C270.262 187.697 271.633 182.273 275.823 179.775C280.014 177.276 285.436 178.647 287.935 182.838Z" fill="#F0F0F0"/>
<path d="M278.112 186.619C278.391 187.088 278.938 187.052 279.603 186.88L278.568 185.144C277.94 185.664 277.856 186.189 278.112 186.619Z" fill="#E0E0E0"/>
<path d="M281.23 187.788L282.26 189.515C282.908 188.983 283.013 188.471 282.762 188.051C282.477 187.574 281.914 187.606 281.23 187.788Z" fill="#E0E0E0"/>
<path d="M276.486 180.886C272.909 183.019 271.738 187.648 273.871 191.224C276.005 194.802 280.633 195.972 284.21 193.839C287.787 191.706 288.957 187.077 286.824 183.5C284.691 179.924 280.062 178.753 276.486 180.886ZM282.894 190.579L283.546 191.672L282.746 192.149L282.1 191.066C281.109 191.578 279.996 191.818 279.227 191.682L279.078 190.434C279.789 190.539 280.69 190.386 281.472 190.012L280.308 188.06C279.068 188.443 277.697 188.784 276.888 187.427C276.295 186.432 276.499 185.133 277.934 184.079L277.276 182.976L278.076 182.499L278.722 183.582C279.468 183.191 280.328 182.969 281.058 182.996L281.246 184.221C280.548 184.226 279.903 184.386 279.351 184.636L280.526 186.607C281.766 186.225 283.15 185.862 283.96 187.218C284.553 188.215 284.333 189.51 282.894 190.579Z" fill="#E0E0E0"/>
<path d="M195.043 75.6103C192.11 79.5102 186.572 80.2943 182.672 77.3619C178.773 74.4296 177.988 68.8915 180.921 64.9916C183.853 61.0923 189.391 60.3075 193.291 63.2399C197.191 66.1723 197.975 71.7104 195.043 75.6103Z" fill="#F0F0F0"/>
<path d="M187.824 67.9503C187.496 68.3859 187.736 68.8789 188.147 69.43L189.362 67.8137C188.642 67.4289 188.124 67.551 187.824 67.9503Z" fill="#E0E0E0"/>
<path d="M187.922 71.2787L186.713 72.8858C187.451 73.2844 187.965 73.1874 188.258 72.7967C188.593 72.3518 188.35 71.843 187.922 71.2787Z" fill="#E0E0E0"/>
<path d="M192.514 64.2741C189.185 61.7714 184.458 62.4406 181.955 65.769C179.452 69.0974 180.122 73.825 183.45 76.3277C186.779 78.8304 191.506 78.1612 194.009 74.8328C196.512 71.5044 195.843 66.7768 192.514 64.2741ZM185.969 73.8758L185.204 74.8929L184.46 74.3332L185.217 73.3254C184.369 72.6013 183.724 71.6622 183.559 70.8985L184.658 70.2887C184.829 70.9863 185.312 71.7618 185.955 72.3446L187.321 70.5289C186.497 69.5257 185.662 68.3866 186.612 67.124C187.308 66.198 188.588 65.8951 190.107 66.8244L190.878 65.7987L191.623 66.3584L190.865 67.3662C191.509 67.9081 192.04 68.6196 192.292 69.3066L191.23 69.9435C190.96 69.3 190.568 68.7634 190.128 68.347L188.748 70.1811C189.572 71.1843 190.431 72.3281 189.482 73.59C188.786 74.5153 187.504 74.8024 185.969 73.8758Z" fill="#E0E0E0"/>
<path d="M61.4098 103.528C64.3032 105.06 65.4067 108.648 63.8742 111.541C62.3424 114.434 58.7553 115.538 55.8618 114.005C52.9684 112.473 51.8649 108.886 53.3967 105.993C54.9292 103.1 58.517 101.996 61.4098 103.528Z" fill="#F0F0F0"/>
<path d="M57.0953 109.12C57.4187 109.291 57.7203 109.08 58.0417 108.75L56.8425 108.115C56.663 108.633 56.7983 108.963 57.0953 109.12Z" fill="#E0E0E0"/>
<path d="M59.2905 108.704L60.4831 109.336C60.6693 108.804 60.5511 108.474 60.2614 108.321C59.9307 108.146 59.6192 108.36 59.2905 108.704Z" fill="#E0E0E0"/>
<path d="M54.1643 106.399C52.8568 108.869 53.7986 111.931 56.2684 113.238C58.7381 114.546 61.7998 113.604 63.1079 111.134C64.4154 108.664 63.4736 105.603 61.0039 104.295C58.5341 102.988 55.4724 103.93 54.1643 106.399ZM61.217 109.724L61.9721 110.124L61.6797 110.676L60.9319 110.28C60.5419 110.919 59.9875 111.445 59.4984 111.634L58.9783 110.971C59.4225 110.784 59.8852 110.382 60.2039 109.895L58.8569 109.181C58.2794 109.833 57.6121 110.506 56.6756 110.01C55.9885 109.647 55.6532 108.831 56.1086 107.726L55.3477 107.323L55.64 106.77L56.3878 107.166C56.6789 106.682 57.0947 106.255 57.523 106.016L58.057 106.653C57.659 106.899 57.3448 107.216 57.1151 107.552L58.4761 108.272C59.0536 107.621 59.7208 106.931 60.658 107.426C61.3444 107.791 61.6698 108.61 61.217 109.724Z" fill="#E0E0E0"/>
<path d="M167.638 156.825C170.394 158.285 171.445 161.701 169.986 164.458C168.526 167.213 165.11 168.264 162.353 166.805C159.597 165.346 158.546 161.929 160.006 159.173C161.465 156.417 164.882 155.366 167.638 156.825Z" fill="#F0F0F0"/>
<path d="M163.528 162.151C163.836 162.314 164.123 162.113 164.429 161.799L163.287 161.194C163.117 161.687 163.245 162.002 163.528 162.151Z" fill="#E0E0E0"/>
<path d="M165.619 161.755L166.755 162.356C166.933 161.85 166.82 161.536 166.544 161.39C166.229 161.223 165.932 161.428 165.619 161.755Z" fill="#E0E0E0"/>
<path d="M160.736 159.56C159.491 161.913 160.388 164.829 162.74 166.075C165.092 167.32 168.009 166.423 169.254 164.071C170.5 161.719 169.603 158.802 167.251 157.557C164.898 156.311 161.982 157.208 160.736 159.56ZM167.454 162.727L168.173 163.108L167.894 163.634L167.182 163.257C166.81 163.866 166.282 164.366 165.817 164.547L165.322 163.915C165.745 163.737 166.186 163.353 166.49 162.89L165.207 162.21C164.656 162.831 164.021 163.472 163.128 163C162.474 162.653 162.154 161.876 162.588 160.824L161.863 160.439L162.142 159.913L162.854 160.29C163.131 159.829 163.527 159.422 163.935 159.195L164.444 159.801C164.064 160.036 163.765 160.338 163.547 160.657L164.843 161.344C165.393 160.723 166.029 160.066 166.921 160.538C167.575 160.885 167.885 161.665 167.454 162.727Z" fill="#E0E0E0"/>
<path d="M251.126 229.71C248.957 236.479 241.71 240.208 234.94 238.039C228.171 235.87 224.442 228.623 226.612 221.852C228.781 215.083 236.028 211.354 242.798 213.523C249.567 215.693 253.296 222.941 251.126 229.71Z" fill="#F0F0F0"/>
<path d="M237.526 222.622C237.283 223.379 237.85 223.942 238.679 224.504L239.578 221.698C238.404 221.513 237.749 221.928 237.526 222.622Z" fill="#E0E0E0"/>
<path d="M239.254 227.156L238.359 229.946C239.566 230.141 240.226 229.763 240.443 229.084C240.691 228.312 240.114 227.727 239.254 227.156Z" fill="#E0E0E0"/>
<path d="M242.222 215.319C236.444 213.467 230.259 216.65 228.407 222.428C226.555 228.206 229.738 234.392 235.516 236.244C241.294 238.096 247.48 234.913 249.332 229.134C251.183 223.357 248.001 217.171 242.222 215.319ZM237.809 231.664L237.243 233.43L235.95 233.016L236.511 231.266C234.997 230.676 233.661 229.692 233.069 228.72L234.288 227.355C234.859 228.233 235.895 229.069 237.057 229.563L238.068 226.411C236.455 225.424 234.76 224.255 235.463 222.064C235.978 220.457 237.594 219.428 240.129 219.979L240.7 218.198L241.992 218.612L241.431 220.362C242.577 220.8 243.649 221.525 244.323 222.349L243.166 223.734C242.487 222.977 241.691 222.427 240.885 222.064L239.865 225.248C241.478 226.234 243.208 227.397 242.506 229.589C241.991 231.197 240.365 232.206 237.809 231.664Z" fill="#E0E0E0"/>
<path d="M59.1203 185.579C52.8899 189.004 45.0643 186.729 41.6409 180.498C38.2174 174.268 40.4918 166.442 46.7222 163.019C52.9519 159.595 60.7782 161.87 64.2016 168.1C67.6251 174.33 65.35 182.156 59.1203 185.579Z" fill="#F0F0F0"/>
<path d="M54.118 171.083C53.4217 171.465 53.4455 172.264 53.6613 173.241L56.2432 171.823C55.5179 170.88 54.7569 170.732 54.118 171.083Z" fill="#E0E0E0"/>
<path d="M52.2549 175.563L49.6875 176.974C50.4293 177.945 51.1692 178.123 51.7936 177.781C52.5044 177.389 52.4866 176.568 52.2549 175.563Z" fill="#E0E0E0"/>
<path d="M62.5488 169.008C59.6263 163.691 52.9464 161.749 47.6288 164.671C42.3112 167.594 40.3695 174.274 43.292 179.591C46.2144 184.909 52.8943 186.851 58.2119 183.928C63.5295 181.006 65.4713 174.326 62.5488 169.008ZM48.1067 177.842L46.4817 178.735L45.8283 177.546L47.4387 176.661C46.7451 175.191 46.4514 173.558 46.6896 172.445L48.5132 172.292C48.3238 173.322 48.5013 174.641 49.0056 175.8L51.9069 174.205C51.4139 172.379 50.9869 170.366 53.0039 169.258C54.4836 168.445 56.3639 168.808 57.8252 170.952L59.4646 170.051L60.118 171.24L58.5083 172.125C59.0396 173.231 59.3187 174.495 59.2415 175.557L57.4496 175.767C57.4767 174.751 57.2774 173.804 56.9414 172.987L54.011 174.597C54.504 176.423 54.9614 178.457 52.9445 179.565C51.4641 180.379 49.5897 179.993 48.1067 177.842Z" fill="#E0E0E0"/>
<path d="M165 282.19C235.674 282.19 292.967 278.844 292.967 274.717C292.967 270.59 235.674 267.244 165 267.244C94.3259 267.244 37.0332 270.59 37.0332 274.717C37.0332 278.844 94.3259 282.19 165 282.19Z" fill="#F5F5F5"/>
<path d="M215.923 275.246H121.999C118.467 275.246 115.604 272.383 115.604 268.852V89.7052C115.604 86.1736 118.468 83.3112 121.999 83.3112H215.922C219.453 83.3112 222.316 86.1742 222.316 89.7052V268.852C222.317 272.384 219.454 275.246 215.923 275.246Z" fill="#263238"/>
<path opacity="0.4" d="M215.923 275.246H121.999C118.467 275.246 115.604 272.383 115.604 268.852V89.7052C115.604 86.1736 118.468 83.3112 121.999 83.3112H215.922C219.453 83.3112 222.316 86.1742 222.316 89.7052V268.852C222.317 272.384 219.454 275.246 215.923 275.246Z" fill="white"/>
<path opacity="0.6" d="M168.943 87.5674C168.943 88.3218 168.332 88.933 167.578 88.933C166.824 88.933 166.212 88.3218 166.212 87.5674C166.212 86.8131 166.824 86.2019 167.578 86.2019C168.332 86.2019 168.943 86.8131 168.943 87.5674Z" fill="black"/>
<path opacity="0.6" d="M171.708 87.5674C171.708 88.0505 171.316 88.4426 170.833 88.4426C170.35 88.4426 169.958 88.0512 169.958 87.5674C169.958 87.0843 170.35 86.6923 170.833 86.6923C171.316 86.6923 171.708 87.0836 171.708 87.5674Z" fill="black"/>
<path d="M218.715 89.7408V268.473C218.715 269.943 217.534 271.086 216.064 271.086H121.575C120.224 271.086 119.207 270.04 119.207 268.689V89.5257C119.207 88.3555 120.066 87.3318 121.237 87.3318H144.859C145.526 87.3318 146.131 87.7674 146.379 88.3944L147.358 90.8028C147.606 91.4245 148.212 91.8548 148.879 91.8548H189.095C189.763 91.8548 190.367 91.4423 190.617 90.8199L191.595 88.3997C191.844 87.772 192.449 87.3312 193.115 87.3312H216.398C217.686 87.3318 218.715 88.4512 218.715 89.7408Z" fill="#263238"/>
<path opacity="0.3" d="M218.715 98.4984H119.206V259.238H218.715V98.4984Z" fill="white"/>
<path d="M216.261 119.249H121.662V256.962H216.261V119.249Z" fill="#454545"/>
<path opacity="0.7" d="M216.261 119.249H121.662V256.962H216.261V119.249Z" fill="white"/>
<path d="M169.744 266.719H168.178C167.352 266.719 166.681 266.047 166.681 265.222V263.655C166.681 262.83 167.353 262.159 168.178 262.159H169.744C170.57 262.159 171.242 262.83 171.242 263.655V265.222C171.241 266.048 170.57 266.719 169.744 266.719ZM168.177 262.773C167.69 262.773 167.295 263.169 167.295 263.655V265.222C167.295 265.709 167.691 266.105 168.177 266.105H169.744C170.23 266.105 170.626 265.709 170.626 265.222V263.655C170.626 263.169 170.23 262.773 169.744 262.773H168.177Z" fill="white"/>
<path d="M216.261 101.649H121.662V117.861H216.261V101.649Z" fill="#454545"/>
<path d="M211.693 106.989C211.693 107.389 211.368 107.714 210.968 107.714C210.567 107.714 210.242 107.389 210.242 106.989C210.242 106.588 210.567 106.263 210.968 106.263C211.368 106.263 211.693 106.588 211.693 106.989Z" fill="white"/>
<path d="M211.693 109.755C211.693 110.155 211.368 110.48 210.968 110.48C210.567 110.48 210.242 110.155 210.242 109.755C210.242 109.354 210.567 109.029 210.968 109.029C211.368 109.029 211.693 109.354 211.693 109.755Z" fill="white"/>
<path d="M211.693 112.521C211.693 112.921 211.368 113.246 210.968 113.246C210.567 113.246 210.242 112.921 210.242 112.521C210.242 112.12 210.567 111.795 210.968 111.795C211.368 111.795 211.693 112.12 211.693 112.521Z" fill="white"/>
<path d="M152.163 112.28L152.634 111.221C153.221 111.693 154.154 112.028 155.055 112.028C156.198 112.028 156.68 111.619 156.68 111.075C156.68 109.491 152.319 110.53 152.319 107.804C152.319 106.619 153.262 105.613 155.275 105.613C156.156 105.613 157.078 105.843 157.718 106.263L157.288 107.321C156.628 106.934 155.904 106.744 155.265 106.744C154.133 106.744 153.671 107.185 153.671 107.74C153.671 109.303 158.022 108.286 158.022 110.98C158.022 112.154 157.068 113.16 155.055 113.16C153.914 113.16 152.77 112.804 152.163 112.28Z" fill="white"/>
<path d="M164.133 111.357H160.463L159.74 113.055H158.334L161.637 105.717H162.979L166.292 113.055H164.866L164.133 111.357ZM163.681 110.288L162.297 107.08L160.924 110.288H163.681Z" fill="white"/>
<path d="M167.222 105.717H168.585V111.902H172.421V113.055H167.222V105.717Z" fill="white"/>
<path d="M179.002 111.913V113.056H173.499V105.718H178.856V106.861H174.861V108.769H178.405V109.891H174.861V111.914L179.002 111.913Z" fill="white"/>
<path d="M179.901 112.28L180.373 111.221C180.96 111.693 181.893 112.028 182.794 112.028C183.937 112.028 184.419 111.619 184.419 111.075C184.419 109.491 180.058 110.53 180.058 107.804C180.058 106.619 181.001 105.613 183.014 105.613C183.895 105.613 184.817 105.843 185.457 106.263L185.027 107.321C184.366 106.934 183.643 106.744 183.004 106.744C181.872 106.744 181.41 107.185 181.41 107.74C181.41 109.303 185.761 108.286 185.761 110.98C185.761 112.154 184.807 113.16 182.794 113.16C181.651 113.16 180.509 112.804 179.901 112.28Z" fill="white"/>
<path d="M211.819 186.931H126.102C124.5 186.931 123.201 188.23 123.201 189.832V256.962H214.72V189.832C214.72 188.23 213.421 186.931 211.819 186.931Z" fill="#454545"/>
<path opacity="0.2" d="M211.819 186.931H126.102C124.5 186.931 123.201 188.23 123.201 189.832V256.962H214.72V189.832C214.72 188.23 213.421 186.931 211.819 186.931Z" fill="white"/>
<path d="M168.96 253.881C168.911 253.881 168.861 253.869 168.817 253.845L164.926 251.782C164.776 251.703 164.719 251.517 164.798 251.367C164.878 251.216 165.063 251.159 165.214 251.239L168.96 253.226L172.707 251.239C172.858 251.16 173.042 251.217 173.122 251.367C173.202 251.517 173.145 251.703 172.995 251.782L169.104 253.845C169.059 253.869 169.011 253.881 168.96 253.881Z" fill="white"/>
<path d="M168.96 251.421C168.911 251.421 168.861 251.409 168.817 251.385L164.926 249.322C164.776 249.242 164.719 249.056 164.798 248.906C164.878 248.755 165.063 248.698 165.214 248.779L168.96 250.766L172.707 248.779C172.858 248.699 173.042 248.757 173.122 248.906C173.202 249.056 173.145 249.242 172.995 249.322L169.104 251.385C169.059 251.409 169.011 251.421 168.96 251.421Z" fill="white"/>
<path opacity="0.6" d="M130.172 94.5347H131.401V92.8959H130.172V94.5347Z" fill="white"/>
<path opacity="0.6" d="M128.169 94.535H129.397V92.3498H128.169V94.535Z" fill="white"/>
<path opacity="0.6" d="M126.166 94.535H127.395V91.8033H126.166V94.535Z" fill="white"/>
<path opacity="0.6" d="M124.163 94.5348H125.392V91.2566H124.163V94.5348Z" fill="white"/>
<path opacity="0.6" d="M207.453 92.2983H206.725V93.9371H207.453V92.2983Z" fill="white"/>
<path opacity="0.6" d="M207.953 94.5345H213.758V91.6998H207.953V94.5345Z" fill="white"/>
<g opacity="0.4">
<path d="M135.383 209.291C134.642 209.291 134.04 209.893 134.04 210.634C134.04 211.375 134.642 211.977 135.383 211.977C136.123 211.977 136.726 211.375 136.726 210.634C136.726 209.893 136.124 209.291 135.383 209.291ZM135.383 211.332C134.998 211.332 134.685 211.018 134.685 210.634C134.685 210.25 134.999 209.936 135.383 209.936C135.767 209.936 136.081 210.249 136.081 210.634C136.081 211.018 135.767 211.332 135.383 211.332Z" fill="white"/>
<path d="M146.219 209.291C145.479 209.291 144.876 209.893 144.876 210.634C144.876 211.375 145.479 211.977 146.219 211.977C146.96 211.977 147.562 211.375 147.562 210.634C147.562 209.893 146.96 209.291 146.219 209.291ZM146.219 211.332C145.834 211.332 145.521 211.018 145.521 210.634C145.521 210.25 145.834 209.936 146.219 209.936C146.604 209.936 146.917 210.249 146.917 210.634C146.917 211.018 146.604 211.332 146.219 211.332Z" fill="white"/>
<path d="M146.795 209.1C146.973 209.1 147.118 208.956 147.118 208.778C147.118 208.599 146.973 208.455 146.795 208.455H134.807C134.628 208.455 134.484 208.599 134.484 208.778C134.484 208.956 134.628 209.1 134.807 209.1H146.795Z" fill="white"/>
<path d="M149.849 199.012H147.175H134.426C134.329 199.012 134.237 199.056 134.176 199.131C134.115 199.206 134.09 199.305 134.109 199.4L135.832 207.852C135.862 208.003 135.995 208.11 136.148 208.11H145.452C145.605 208.11 145.737 208.002 145.768 207.852L147.438 199.658H149.848C150.027 199.658 150.171 199.513 150.171 199.335C150.172 199.157 150.027 199.012 149.849 199.012ZM146.337 201.83H143.131L143.242 199.658H146.779L146.337 201.83ZM145.763 204.647H142.987L143.098 202.475H146.205L145.763 204.647ZM139.261 204.647L139.15 202.475H142.452L142.342 204.647H139.261ZM142.308 205.293L142.197 207.465H139.405L139.294 205.293H142.308ZM135.396 202.475H138.503L138.614 204.647H135.838L135.396 202.475ZM139.117 201.83L139.006 199.658H142.596L142.485 201.83H139.117ZM138.359 199.658L138.47 201.83H135.264L134.821 199.658H138.359ZM135.97 205.293H138.648L138.758 207.465H136.413L135.97 205.293ZM145.189 207.465H142.843L142.954 205.293H145.632L145.189 207.465Z" fill="white"/>
</g>
<path opacity="0.3" d="M152.243 217.472H129.328C128.676 217.472 128.148 216.944 128.148 216.292V193.377C128.148 192.726 128.676 192.198 129.328 192.198H152.243C152.894 192.198 153.422 192.726 153.422 193.377V216.292C153.423 216.944 152.894 217.472 152.243 217.472Z" fill="black"/>
<path d="M133.82 205.911L134.042 205.413C134.318 205.635 134.757 205.793 135.181 205.793C135.719 205.793 135.946 205.6 135.946 205.344C135.946 204.599 133.894 205.087 133.894 203.804C133.894 203.246 134.338 202.772 135.285 202.772C135.7 202.772 136.134 202.881 136.435 203.079L136.232 203.577C135.921 203.395 135.581 203.306 135.28 203.306C134.747 203.306 134.53 203.513 134.53 203.774C134.53 204.509 136.578 204.031 136.578 205.299C136.578 205.852 136.129 206.326 135.181 206.326C134.644 206.326 134.106 206.158 133.82 205.911Z" fill="white"/>
<path d="M136.965 204.55C136.965 203.528 137.755 202.774 138.826 202.774C139.896 202.774 140.686 203.524 140.686 204.55C140.686 205.577 139.896 206.326 138.826 206.326C137.755 206.326 136.965 205.571 136.965 204.55ZM140.04 204.55C140.04 203.844 139.522 203.336 138.826 203.336C138.13 203.336 137.612 203.844 137.612 204.55C137.612 205.255 138.13 205.764 138.826 205.764C139.522 205.764 140.04 205.255 140.04 204.55Z" fill="white"/>
<path d="M141.363 202.823H142.004V205.734H143.81V206.277H141.363V202.823Z" fill="white"/>
<path d="M144.316 202.823H145.826C146.946 202.823 147.711 203.514 147.711 204.55C147.711 205.586 146.946 206.277 145.826 206.277H144.316V202.823ZM145.796 205.734C146.567 205.734 147.064 205.265 147.064 204.55C147.064 203.834 146.566 203.366 145.796 203.366H144.957V205.734H145.796Z" fill="white"/>
<g opacity="0.4">
<path d="M163.316 209.291C162.575 209.291 161.973 209.893 161.973 210.634C161.973 211.375 162.575 211.977 163.316 211.977C164.056 211.977 164.659 211.375 164.659 210.634C164.659 209.893 164.056 209.291 163.316 209.291ZM163.316 211.332C162.931 211.332 162.618 211.018 162.618 210.634C162.618 210.25 162.932 209.936 163.316 209.936C163.701 209.936 164.013 210.249 164.013 210.634C164.013 211.018 163.701 211.332 163.316 211.332Z" fill="white"/>
<path d="M174.152 209.291C173.411 209.291 172.809 209.893 172.809 210.634C172.809 211.375 173.411 211.977 174.152 211.977C174.892 211.977 175.495 211.375 175.495 210.634C175.495 209.893 174.892 209.291 174.152 209.291ZM174.152 211.332C173.767 211.332 173.454 211.018 173.454 210.634C173.454 210.25 173.767 209.936 174.152 209.936C174.536 209.936 174.849 210.249 174.849 210.634C174.849 211.018 174.536 211.332 174.152 211.332Z" fill="white"/>
<path d="M174.728 209.1C174.906 209.1 175.051 208.956 175.051 208.778C175.051 208.599 174.906 208.455 174.728 208.455H162.74C162.562 208.455 162.417 208.599 162.417 208.778C162.417 208.956 162.562 209.1 162.74 209.1H174.728Z" fill="white"/>
<path d="M177.782 199.012H175.108H162.359C162.262 199.012 162.17 199.056 162.109 199.131C162.047 199.206 162.023 199.305 162.042 199.4L163.765 207.852C163.796 208.003 163.928 208.11 164.081 208.11H173.384C173.538 208.11 173.67 208.002 173.7 207.852L175.371 199.658H177.78C177.959 199.658 178.103 199.513 178.103 199.335C178.104 199.157 177.96 199.012 177.782 199.012ZM174.27 201.83H171.064L171.175 199.658H174.713L174.27 201.83ZM173.696 204.647H170.92L171.031 202.475H174.139L173.696 204.647ZM167.193 204.647L167.082 202.475H170.385L170.274 204.647H167.193ZM170.241 205.293L170.13 207.465H167.337L167.226 205.293H170.241ZM163.328 202.475H166.436L166.547 204.647H163.771L163.328 202.475ZM167.049 201.83L166.939 199.658H170.529L170.418 201.83H167.049ZM166.292 199.658L166.403 201.83H163.196L162.753 199.658H166.292ZM163.903 205.293H166.58L166.691 207.465H164.345L163.903 205.293ZM173.122 207.465H170.776L170.887 205.293H173.565L173.122 207.465Z" fill="white"/>
</g>
<path opacity="0.3" d="M180.176 217.472H157.261C156.61 217.472 156.082 216.944 156.082 216.292V193.377C156.082 192.726 156.61 192.198 157.261 192.198H180.176C180.828 192.198 181.356 192.726 181.356 193.377V216.292C181.356 216.944 180.828 217.472 180.176 217.472Z" fill="black"/>
<g opacity="0.4">
<path d="M191.248 209.291C190.508 209.291 189.905 209.893 189.905 210.634C189.905 211.375 190.508 211.977 191.248 211.977C191.989 211.977 192.591 211.375 192.591 210.634C192.591 209.893 191.989 209.291 191.248 209.291ZM191.248 211.332C190.864 211.332 190.551 211.018 190.551 210.634C190.551 210.25 190.864 209.936 191.248 209.936C191.633 209.936 191.946 210.249 191.946 210.634C191.946 211.018 191.633 211.332 191.248 211.332Z" fill="white"/>
<path d="M202.084 209.291C201.344 209.291 200.741 209.893 200.741 210.634C200.741 211.375 201.344 211.977 202.084 211.977C202.825 211.977 203.427 211.375 203.427 210.634C203.428 209.893 202.825 209.291 202.084 209.291ZM202.084 211.332C201.7 211.332 201.387 211.018 201.387 210.634C201.387 210.25 201.7 209.936 202.084 209.936C202.469 209.936 202.782 210.249 202.782 210.634C202.783 211.018 202.469 211.332 202.084 211.332Z" fill="white"/>
<path d="M202.661 209.1C202.839 209.1 202.983 208.956 202.983 208.778C202.983 208.599 202.839 208.455 202.661 208.455H190.672C190.494 208.455 190.35 208.599 190.35 208.778C190.35 208.956 190.494 209.1 190.672 209.1H202.661Z" fill="white"/>
<path d="M205.715 199.012H203.042H190.292C190.195 199.012 190.103 199.056 190.041 199.131C189.98 199.206 189.956 199.305 189.975 199.4L191.698 207.852C191.729 208.003 191.861 208.11 192.014 208.11H201.318C201.471 208.11 201.603 208.002 201.634 207.852L203.304 199.658H205.714C205.892 199.658 206.037 199.513 206.037 199.335C206.038 199.157 205.893 199.012 205.715 199.012ZM202.203 201.83H198.997L199.108 199.658H202.645L202.203 201.83ZM201.629 204.647H198.853L198.964 202.475H202.071L201.629 204.647ZM195.127 204.647L195.016 202.475H198.319L198.208 204.647H195.127ZM198.174 205.293L198.063 207.465H195.271L195.16 205.293H198.174ZM191.261 202.475H194.368L194.479 204.647H191.703L191.261 202.475ZM194.982 201.83L194.871 199.658H198.462L198.351 201.83H194.982ZM194.225 199.658L194.336 201.83H191.13L190.687 199.658H194.225ZM191.835 205.293H194.513L194.624 207.465H192.278L191.835 205.293ZM201.055 207.465H198.709L198.82 205.293H201.498L201.055 207.465Z" fill="white"/>
</g>
<path opacity="0.3" d="M208.109 217.472H185.194C184.542 217.472 184.014 216.944 184.014 216.292V193.377C184.014 192.726 184.542 192.198 185.194 192.198H208.109C208.76 192.198 209.288 192.726 209.288 193.377V216.292C209.288 216.944 208.76 217.472 208.109 217.472Z" fill="black"/>
<g opacity="0.4">
<path d="M135.383 237.012C134.642 237.012 134.04 237.614 134.04 238.356C134.04 239.096 134.642 239.699 135.383 239.699C136.123 239.699 136.726 239.096 136.726 238.356C136.726 237.615 136.124 237.012 135.383 237.012ZM135.383 239.053C134.998 239.053 134.685 238.74 134.685 238.356C134.685 237.971 134.999 237.657 135.383 237.657C135.767 237.657 136.081 237.97 136.081 238.356C136.081 238.74 135.767 239.053 135.383 239.053Z" fill="white"/>
<path d="M146.219 237.012C145.479 237.012 144.876 237.614 144.876 238.356C144.876 239.096 145.479 239.699 146.219 239.699C146.96 239.699 147.562 239.096 147.562 238.356C147.562 237.615 146.96 237.012 146.219 237.012ZM146.219 239.053C145.834 239.053 145.521 238.74 145.521 238.356C145.521 237.971 145.834 237.657 146.219 237.657C146.604 237.657 146.917 237.97 146.917 238.356C146.917 238.74 146.604 239.053 146.219 239.053Z" fill="white"/>
<path d="M146.795 236.822C146.973 236.822 147.118 236.677 147.118 236.499C147.118 236.321 146.973 236.176 146.795 236.176H134.807C134.628 236.176 134.484 236.321 134.484 236.499C134.484 236.677 134.628 236.822 134.807 236.822H146.795Z" fill="white"/>
<path d="M149.849 226.734H147.175H134.426C134.329 226.734 134.237 226.778 134.176 226.853C134.115 226.928 134.09 227.027 134.109 227.122L135.832 235.574C135.862 235.725 135.995 235.832 136.148 235.832H145.452C145.605 235.832 145.737 235.724 145.768 235.574L147.438 227.38H149.848C150.027 227.38 150.171 227.235 150.171 227.057C150.172 226.879 150.027 226.734 149.849 226.734ZM146.337 229.552H143.131L143.242 227.38H146.779L146.337 229.552ZM145.763 232.369H142.987L143.098 230.197H146.205L145.763 232.369ZM139.261 232.369L139.15 230.197H142.452L142.342 232.369H139.261ZM142.308 233.015L142.197 235.187H139.405L139.294 233.015H142.308ZM135.396 230.197H138.503L138.614 232.369H135.838L135.396 230.197ZM139.117 229.552L139.006 227.38H142.596L142.485 229.552H139.117ZM138.359 227.38L138.47 229.552H135.264L134.821 227.38H138.359ZM135.97 233.015H138.648L138.758 235.187H136.413L135.97 233.015ZM145.189 235.187H142.843L142.954 233.015H145.632L145.189 235.187Z" fill="white"/>
</g>
<path opacity="0.3" d="M152.243 245.194H129.328C128.676 245.194 128.148 244.666 128.148 244.014V221.099C128.148 220.448 128.676 219.92 129.328 219.92H152.243C152.894 219.92 153.422 220.448 153.422 221.099V244.014C153.423 244.666 152.894 245.194 152.243 245.194Z" fill="black"/>
<g opacity="0.4">
<path d="M163.316 237.012C162.575 237.012 161.973 237.614 161.973 238.356C161.973 239.096 162.575 239.699 163.316 239.699C164.056 239.699 164.659 239.096 164.659 238.356C164.659 237.615 164.056 237.012 163.316 237.012ZM163.316 239.053C162.931 239.053 162.618 238.74 162.618 238.356C162.618 237.971 162.932 237.657 163.316 237.657C163.701 237.657 164.013 237.97 164.013 238.356C164.013 238.74 163.701 239.053 163.316 239.053Z" fill="white"/>
<path d="M174.152 237.012C173.411 237.012 172.809 237.614 172.809 238.356C172.809 239.096 173.411 239.699 174.152 239.699C174.892 239.699 175.495 239.096 175.495 238.356C175.495 237.615 174.892 237.012 174.152 237.012ZM174.152 239.053C173.767 239.053 173.454 238.74 173.454 238.356C173.454 237.971 173.767 237.657 174.152 237.657C174.536 237.657 174.849 237.97 174.849 238.356C174.849 238.74 174.536 239.053 174.152 239.053Z" fill="white"/>
<path d="M174.728 236.822C174.906 236.822 175.051 236.677 175.051 236.499C175.051 236.321 174.906 236.176 174.728 236.176H162.74C162.562 236.176 162.417 236.321 162.417 236.499C162.417 236.677 162.562 236.822 162.74 236.822H174.728Z" fill="white"/>
<path d="M177.782 226.734H175.108H162.359C162.262 226.734 162.17 226.778 162.109 226.853C162.047 226.928 162.023 227.027 162.042 227.122L163.765 235.574C163.796 235.725 163.928 235.832 164.081 235.832H173.384C173.538 235.832 173.67 235.724 173.7 235.574L175.371 227.38H177.78C177.959 227.38 178.103 227.235 178.103 227.057C178.104 226.879 177.96 226.734 177.782 226.734ZM174.27 229.552H171.064L171.175 227.38H174.713L174.27 229.552ZM173.696 232.369H170.92L171.031 230.197H174.139L173.696 232.369ZM167.193 232.369L167.082 230.197H170.385L170.274 232.369H167.193ZM170.241 233.015L170.13 235.187H167.337L167.226 233.015H170.241ZM163.328 230.197H166.436L166.547 232.369H163.771L163.328 230.197ZM167.049 229.552L166.939 227.38H170.529L170.418 229.552H167.049ZM166.292 227.38L166.403 229.552H163.196L162.753 227.38H166.292ZM163.903 233.015H166.58L166.691 235.187H164.345L163.903 233.015ZM173.122 235.187H170.776L170.887 233.015H173.565L173.122 235.187Z" fill="white"/>
</g>
<path opacity="0.3" d="M180.176 245.194H157.261C156.61 245.194 156.082 244.666 156.082 244.014V221.099C156.082 220.448 156.61 219.92 157.261 219.92H180.176C180.828 219.92 181.356 220.448 181.356 221.099V244.014C181.356 244.666 180.828 245.194 180.176 245.194Z" fill="black"/>
<g opacity="0.4">
<path d="M191.248 237.012C190.508 237.012 189.905 237.614 189.905 238.356C189.905 239.096 190.508 239.699 191.248 239.699C191.989 239.699 192.591 239.096 192.591 238.356C192.591 237.615 191.989 237.012 191.248 237.012ZM191.248 239.053C190.864 239.053 190.551 238.74 190.551 238.356C190.551 237.971 190.864 237.657 191.248 237.657C191.633 237.657 191.946 237.97 191.946 238.356C191.946 238.74 191.633 239.053 191.248 239.053Z" fill="white"/>
<path d="M202.084 237.012C201.344 237.012 200.741 237.614 200.741 238.356C200.741 239.096 201.344 239.699 202.084 239.699C202.825 239.699 203.427 239.096 203.427 238.356C203.428 237.615 202.825 237.012 202.084 237.012ZM202.084 239.053C201.7 239.053 201.387 238.74 201.387 238.356C201.387 237.971 201.7 237.657 202.084 237.657C202.469 237.657 202.782 237.97 202.782 238.356C202.783 238.74 202.469 239.053 202.084 239.053Z" fill="white"/>
<path d="M202.661 236.822C202.839 236.822 202.983 236.677 202.983 236.499C202.983 236.321 202.839 236.176 202.661 236.176H190.672C190.494 236.176 190.35 236.321 190.35 236.499C190.35 236.677 190.494 236.822 190.672 236.822H202.661Z" fill="white"/>
<path d="M205.715 226.734H203.042H190.292C190.195 226.734 190.103 226.778 190.041 226.853C189.98 226.928 189.956 227.027 189.975 227.122L191.698 235.574C191.729 235.725 191.861 235.832 192.014 235.832H201.318C201.471 235.832 201.603 235.724 201.634 235.574L203.304 227.38H205.714C205.892 227.38 206.037 227.235 206.037 227.057C206.038 226.879 205.893 226.734 205.715 226.734ZM202.203 229.552H198.997L199.108 227.38H202.645L202.203 229.552ZM201.629 232.369H198.853L198.964 230.197H202.071L201.629 232.369ZM195.127 232.369L195.016 230.197H198.319L198.208 232.369H195.127ZM198.174 233.015L198.063 235.187H195.271L195.16 233.015H198.174ZM191.261 230.197H194.368L194.479 232.369H191.703L191.261 230.197ZM194.982 229.552L194.871 227.38H198.462L198.351 229.552H194.982ZM194.225 227.38L194.336 229.552H191.13L190.687 227.38H194.225ZM191.835 233.015H194.513L194.624 235.187H192.278L191.835 233.015ZM201.055 235.187H198.709L198.82 233.015H201.498L201.055 235.187Z" fill="white"/>
</g>
<path opacity="0.3" d="M208.109 245.194H185.194C184.542 245.194 184.014 244.666 184.014 244.014V221.099C184.014 220.448 184.542 219.92 185.194 219.92H208.109C208.76 219.92 209.288 220.448 209.288 221.099V244.014C209.288 244.666 208.76 245.194 208.109 245.194Z" fill="black"/>
<path d="M188.567 173.1C199.397 162.27 199.397 144.712 188.567 133.882C177.737 123.053 160.179 123.053 149.349 133.882C138.52 144.712 138.52 162.27 149.349 173.1C160.179 183.93 177.737 183.93 188.567 173.1Z" fill="#454545"/>
<path d="M168.961 181.882C153.305 181.882 140.569 169.146 140.569 153.491C140.569 137.836 153.305 125.099 168.961 125.099C184.616 125.099 197.352 137.835 197.352 153.491C197.352 169.146 184.616 181.882 168.961 181.882ZM168.961 126.42C154.033 126.42 141.889 138.564 141.889 153.492C141.889 168.418 154.033 180.563 168.961 180.563C183.888 180.563 196.032 168.419 196.032 153.492C196.032 138.564 183.888 126.42 168.961 126.42Z" fill="white"/>
<g opacity="0.5">
<path d="M182.643 151.572H173.723V152.774H182.643V151.572Z" fill="white"/>
<path d="M182.643 153.49H173.723V154.136H182.643V153.49Z" fill="white"/>
<path d="M173.722 151.239H182.642V143.038H186.202L178.183 134.577L170.163 143.038H173.722V151.239Z" fill="white"/>
<path d="M182.643 155.043H173.723V155.365H182.643V155.043Z" fill="white"/>
</g>
<path d="M155.318 164.244C154.003 164.244 152.934 165.313 152.934 166.628C152.934 167.942 154.003 169.011 155.318 169.011C156.632 169.011 157.701 167.942 157.701 166.628C157.701 165.313 156.632 164.244 155.318 164.244ZM155.318 167.866C154.634 167.866 154.079 167.31 154.079 166.628C154.079 165.944 154.635 165.389 155.318 165.389C156 165.389 156.556 165.944 156.556 166.628C156.556 167.31 156 167.866 155.318 167.866Z" fill="white"/>
<path d="M174.545 164.244C173.231 164.244 172.161 165.313 172.161 166.628C172.161 167.942 173.23 169.011 174.545 169.011C175.859 169.011 176.928 167.942 176.928 166.628C176.928 165.313 175.859 164.244 174.545 164.244ZM174.545 167.866C173.861 167.866 173.306 167.31 173.306 166.628C173.306 165.944 173.862 165.389 174.545 165.389C175.227 165.389 175.783 165.944 175.783 166.628C175.783 167.31 175.227 167.866 174.545 167.866Z" fill="white"/>
<path d="M175.566 163.906C175.882 163.906 176.139 163.65 176.139 163.334C176.139 163.017 175.883 162.761 175.566 162.761H154.295C153.979 162.761 153.722 163.017 153.722 163.334C153.722 163.65 153.979 163.906 154.295 163.906H175.566Z" fill="white"/>
<path d="M180.986 146.007H176.241H153.62C153.448 146.007 153.285 146.084 153.176 146.218C153.068 146.351 153.025 146.526 153.059 146.694L156.116 161.692C156.171 161.959 156.405 162.15 156.677 162.15H173.184C173.457 162.15 173.691 161.959 173.745 161.692L176.709 147.152H180.985C181.301 147.152 181.558 146.896 181.558 146.579C181.558 146.264 181.302 146.007 180.986 146.007ZM174.754 151.007H169.066L169.263 147.152H175.541L174.754 151.007ZM173.736 156.006H168.81L169.008 152.152H174.521L173.736 156.006ZM162.198 156.006L162.001 152.152H167.86L167.663 156.006H162.198ZM167.605 157.151L167.408 161.006H162.453L162.256 157.151H167.605ZM155.34 152.152H160.854L161.051 156.006H156.125L155.34 152.152ZM161.943 151.007L161.745 147.152H168.116L167.919 151.007H161.943ZM160.598 147.152L160.795 151.007H155.107L154.322 147.152H160.598ZM156.359 157.151H161.11L161.307 161.006H157.145L156.359 157.151ZM172.717 161.006H168.555L168.752 157.151H173.503L172.717 161.006Z" fill="white"/>
<path opacity="0.2" d="M213.345 87.3293L119.206 181.469V89.5231C119.206 88.3549 120.066 87.3286 121.234 87.3286H144.857C145.527 87.3286 146.13 87.7649 146.382 88.3919L147.359 90.8015C147.605 91.4226 148.214 91.8529 148.878 91.8529H189.097C189.761 91.8529 190.369 91.4411 190.616 90.82L191.593 88.3978C191.845 87.7708 192.448 87.3286 193.118 87.3286H213.345V87.3293Z" fill="white"/>
<path opacity="0.2" d="M218.718 104.78V112.507L119.206 212.013V204.292L218.718 104.78Z" fill="white"/>
<path d="M93.4441 219.127C92.9966 213.804 88.5277 209.606 83.0906 209.606C77.6536 209.606 73.1854 213.803 72.7372 219.127C72.3656 219.247 72.0957 219.593 72.0957 220.004C72.0957 220.516 72.5108 220.93 73.0223 220.93C73.5345 220.93 73.949 220.515 73.949 220.004C73.949 219.625 73.7206 219.3 73.3952 219.156C73.8269 214.183 78.0067 210.266 83.09 210.266C88.1733 210.266 92.3537 214.183 92.7847 219.156C92.4587 219.3 92.231 219.625 92.231 220.004C92.231 220.516 92.6461 220.93 93.1576 220.93C93.6691 220.93 94.0843 220.515 94.0843 220.004C94.0856 219.593 93.8156 219.247 93.4441 219.127Z" fill="#263238"/>
<path opacity="0.5" d="M93.4441 219.127C92.9966 213.804 88.5277 209.606 83.0906 209.606C77.6536 209.606 73.1854 213.803 72.7372 219.127C72.3656 219.247 72.0957 219.593 72.0957 220.004C72.0957 220.516 72.5108 220.93 73.0223 220.93C73.5345 220.93 73.949 220.515 73.949 220.004C73.949 219.625 73.7206 219.3 73.3952 219.156C73.8269 214.183 78.0067 210.266 83.09 210.266C88.1733 210.266 92.3537 214.183 92.7847 219.156C92.4587 219.3 92.231 219.625 92.231 220.004C92.231 220.516 92.6461 220.93 93.1576 220.93C93.6691 220.93 94.0843 220.515 94.0843 220.004C94.0856 219.593 93.8156 219.247 93.4441 219.127Z" fill="white"/>
<path d="M109.137 275.246H62.4365L65.6699 233.996H65.6567V218.401H105.923V233.996H105.903L109.137 275.246Z" fill="black"/>
<path opacity="0.2" d="M74.6063 275.246L68.5211 268L62.4365 275.246L65.6699 233.996H65.6567V218.401H71.9531V233.996H71.9399L74.6063 275.246Z" fill="black"/>
<path opacity="0.2" d="M74.6062 275.246L68.521 268V218.401H71.953V233.996H71.9398L74.6062 275.246Z" fill="black"/>
<path d="M98.7248 219.127C98.2773 213.804 93.8085 209.606 88.3714 209.606C82.9343 209.606 78.4655 213.803 78.018 219.127C77.6464 219.247 77.3765 219.593 77.3765 220.004C77.3765 220.516 77.7916 220.93 78.3031 220.93C78.8153 220.93 79.2297 220.515 79.2297 220.004C79.2297 219.625 79.0014 219.3 78.676 219.156C79.1076 214.183 83.2874 210.266 88.3714 210.266C93.4547 210.266 97.6352 214.183 98.0662 219.156C97.7401 219.3 97.5124 219.625 97.5124 220.004C97.5124 220.516 97.9275 220.93 98.439 220.93C98.9505 220.93 99.3657 220.515 99.3657 220.004C99.3657 219.593 99.0957 219.247 98.7248 219.127Z" fill="#263238"/>
<path opacity="0.7" d="M98.7248 219.127C98.2773 213.804 93.8085 209.606 88.3714 209.606C82.9343 209.606 78.4655 213.803 78.018 219.127C77.6464 219.247 77.3765 219.593 77.3765 220.004C77.3765 220.516 77.7916 220.93 78.3031 220.93C78.8153 220.93 79.2297 220.515 79.2297 220.004C79.2297 219.625 79.0014 219.3 78.676 219.156C79.1076 214.183 83.2874 210.266 88.3714 210.266C93.4547 210.266 97.6352 214.183 98.0662 219.156C97.7401 219.3 97.5124 219.625 97.5124 220.004C97.5124 220.516 97.9275 220.93 98.439 220.93C98.9505 220.93 99.3657 220.515 99.3657 220.004C99.3657 219.593 99.0957 219.247 98.7248 219.127Z" fill="white"/>
<path d="M116.132 229.454C115.77 225.106 112.122 221.677 107.682 221.677C103.242 221.677 99.5952 225.106 99.2322 229.454C98.9306 229.553 98.7095 229.828 98.7095 230.163C98.7095 230.581 99.0481 230.919 99.4658 230.919C99.8836 230.919 100.222 230.581 100.222 230.163C100.222 229.854 100.035 229.59 99.7701 229.473C100.122 225.413 103.533 222.216 107.682 222.216C111.832 222.216 115.242 225.413 115.594 229.473C115.329 229.59 115.142 229.854 115.142 230.163C115.142 230.581 115.481 230.919 115.899 230.919C116.316 230.919 116.655 230.581 116.655 230.163C116.655 229.828 116.434 229.553 116.132 229.454Z" fill="#263238"/>
<path d="M128.939 275.246H90.8257L93.465 241.582H93.4545V228.855H126.316V241.582H126.299L128.939 275.246Z" fill="black"/>
<path opacity="0.7" d="M128.939 275.246H90.8257L93.465 241.582H93.4545V228.855H126.316V241.582H126.299L128.939 275.246Z" fill="white"/>
<path opacity="0.2" d="M100.758 275.246L95.7922 269.332L90.8257 275.246L93.465 241.582H93.4545V228.855H98.5926V241.582H98.582L100.758 275.246Z" fill="black"/>
<path opacity="0.2" d="M100.758 275.246L95.792 269.332V228.855H98.5924V241.582H98.5818L100.758 275.246Z" fill="black"/>
<path d="M120.441 229.454C120.079 225.106 116.431 221.677 111.991 221.677C107.551 221.677 103.904 225.106 103.542 229.454C103.24 229.553 103.019 229.828 103.019 230.163C103.019 230.581 103.357 230.919 103.775 230.919C104.193 230.919 104.531 230.581 104.531 230.163C104.531 229.854 104.344 229.59 104.079 229.473C104.431 225.413 107.842 222.216 111.991 222.216C116.141 222.216 119.552 225.413 119.903 229.473C119.638 229.59 119.451 229.854 119.451 230.163C119.451 230.581 119.79 230.919 120.208 230.919C120.625 230.919 120.964 230.581 120.964 230.163C120.964 229.828 120.743 229.553 120.441 229.454Z" fill="#263238"/>
<path opacity="0.2" d="M120.441 229.454C120.079 225.106 116.431 221.677 111.991 221.677C107.551 221.677 103.904 225.106 103.542 229.454C103.24 229.553 103.019 229.828 103.019 230.163C103.019 230.581 103.357 230.919 103.775 230.919C104.193 230.919 104.531 230.581 104.531 230.163C104.531 229.854 104.344 229.59 104.079 229.473C104.431 225.413 107.842 222.216 111.991 222.216C116.141 222.216 119.552 225.413 119.903 229.473C119.638 229.59 119.451 229.854 119.451 230.163C119.451 230.581 119.79 230.919 120.208 230.919C120.625 230.919 120.964 230.581 120.964 230.163C120.964 229.828 120.743 229.553 120.441 229.454Z" fill="white"/>
<path d="M269.489 99.3775C274.117 94.7497 274.117 87.2466 269.489 82.6188C264.861 77.991 257.358 77.991 252.73 82.6188C248.103 87.2466 248.103 94.7497 252.73 99.3775C257.358 104.005 264.861 104.005 269.489 99.3775Z" fill="black"/>
<path d="M262.866 88.4804C262.866 87.4831 262.011 86.8066 260.64 86.8066C259.322 86.8066 258.361 87.3049 257.738 88.1774L256.011 87.0554C257.008 85.7024 258.61 84.8827 260.836 84.8827C263.453 84.8827 265.198 86.076 265.198 88.1233C265.198 91.0253 262.153 91.2926 262.153 93.3934H259.892C259.892 90.76 262.866 90.261 262.866 88.4804ZM259.607 96.2617C259.607 95.4961 260.195 94.8909 261.031 94.8909C261.85 94.8909 262.438 95.4961 262.438 96.2617C262.438 97.0273 261.85 97.6504 261.031 97.6504C260.194 97.6504 259.607 97.0273 259.607 96.2617Z" fill="white"/>
<path d="M261.112 99.4607L259.49 101.657L261.112 106.494L262.734 101.657L261.112 99.4607Z" fill="black"/>
<path d="M250.634 142.903C247.746 144.62 244.874 146.131 241.738 147.463C240.956 147.798 240.158 148.117 239.321 148.41C238.484 148.705 237.625 148.986 236.639 149.219C236.142 149.335 235.615 149.434 234.958 149.491C234.634 149.518 234.263 149.533 233.806 149.5C233.348 149.455 232.792 149.405 231.993 149.028C231.778 148.916 231.592 148.815 231.376 148.655C231.157 148.489 230.959 148.328 230.761 148.101C230.564 147.884 230.392 147.651 230.254 147.398L230.151 147.207C230.114 147.13 230.101 147.116 230.034 146.949C229.925 146.677 229.846 146.385 229.803 146.098C229.772 145.869 229.767 145.684 229.771 145.474C229.774 145.378 229.78 145.257 229.79 145.184L229.819 144.985C229.841 144.852 229.869 144.721 229.902 144.591L229.986 144.323L230.079 144.071L230.161 143.885C230.22 143.755 230.277 143.643 230.326 143.559C230.539 143.172 230.718 142.93 230.894 142.691C231.069 142.46 231.237 142.255 231.399 142.069C232.054 141.326 232.679 140.728 233.309 140.142C233.938 139.56 234.563 139.005 235.198 138.468C236.473 137.405 237.742 136.373 239.047 135.39C241.638 133.404 244.291 131.551 247.036 129.782C247.87 129.244 248.982 129.485 249.52 130.319C249.984 131.038 249.869 131.963 249.295 132.549L249.283 132.562C247.047 134.847 244.78 137.126 242.539 139.371C241.429 140.507 240.307 141.619 239.245 142.759C238.712 143.325 238.181 143.885 237.684 144.448C237.188 145.005 236.71 145.578 236.348 146.078C236.256 146.203 236.18 146.317 236.12 146.412C236.066 146.502 236.019 146.593 236.048 146.562C236.046 146.565 236.06 146.544 236.081 146.506L236.102 146.459L236.146 146.349L236.184 146.224C236.207 146.144 236.226 146.062 236.239 145.979L236.254 145.854C236.26 145.807 236.27 145.71 236.272 145.639C236.277 145.479 236.269 145.345 236.244 145.164C236.213 144.925 236.148 144.682 236.053 144.458L235.968 144.267L235.903 144.142C235.809 143.98 235.701 143.825 235.573 143.681C235.313 143.397 235.048 143.215 234.823 143.106C234.389 142.903 234.237 142.914 234.179 142.891C234.123 142.879 234.154 142.875 234.229 142.855C234.37 142.823 234.63 142.75 234.909 142.66C236.068 142.297 237.459 141.639 238.807 140.996C241.513 139.657 244.317 138.144 247.002 136.67L247.057 136.64C248.804 135.681 250.997 136.32 251.956 138.066C252.892 139.774 252.296 141.914 250.634 142.903Z" fill="#B65B52"/>
<path d="M248.893 135.945C245.913 136.677 243.357 138.686 243.357 138.686L245.913 136.117L241.981 131.902C241.981 131.902 227.321 141.353 228.95 147.236C230.298 152.105 239.888 148.938 245.321 146.383L248.893 135.945Z" fill="#263238"/>
<path opacity="0.2" d="M248.892 135.947L246.602 142.639L245.321 146.381C244.886 146.586 244.43 146.791 243.949 147.002C238.418 149.391 230.194 151.714 228.947 147.239C227.323 141.352 241.982 131.901 241.982 131.901L245.915 136.118L243.361 138.679C243.514 138.56 246.009 136.66 248.892 135.947Z" fill="white"/>
<path opacity="0.2" d="M243.357 138.686C243.357 138.686 239.313 142.996 238.429 144.512C237.544 146.029 242.725 141.96 243.357 138.686Z" fill="black"/>
<path opacity="0.2" d="M246.602 142.639L245.322 146.381C244.886 146.586 244.431 146.791 243.949 147.002C244.675 145.193 245.836 143.583 246.602 142.639Z" fill="black"/>
<path d="M276.719 141.115C278.901 143.625 280.823 146.152 282.606 148.987C283.497 150.401 284.326 151.875 285.062 153.562C285.429 154.415 285.765 155.314 286.001 156.45L286.082 156.884C286.106 157.038 286.123 157.209 286.14 157.37C286.182 157.674 286.182 158.081 286.174 158.453C286.147 158.808 286.104 159.181 286.04 159.499C285.97 159.793 285.903 160.129 285.811 160.383C285.467 161.473 285.016 162.322 284.558 163.119C284.093 163.904 283.606 164.625 283.107 165.319C282.089 166.684 281.031 167.941 279.923 169.133C277.714 171.529 275.377 173.676 272.857 175.714C272.085 176.337 270.954 176.218 270.33 175.446C269.798 174.788 269.807 173.868 270.3 173.225L270.329 173.187C272.187 170.762 274.04 168.26 275.755 165.789C276.603 164.543 277.425 163.299 278.127 162.053C278.48 161.437 278.806 160.821 279.077 160.227C279.343 159.641 279.543 159.059 279.629 158.646C279.664 158.529 279.646 158.475 279.667 158.389C279.669 158.323 279.656 158.305 279.659 158.271C279.636 158.252 279.649 158.267 279.619 158.185L279.594 158.091L279.547 157.953C279.423 157.566 279.169 157.009 278.877 156.446C278.282 155.304 277.484 154.098 276.66 152.901C275.822 151.707 274.933 150.508 274.017 149.324C273.126 148.134 272.14 146.938 271.247 145.817L271.175 145.727C269.934 144.168 270.191 141.899 271.749 140.659C273.266 139.454 275.458 139.67 276.719 141.115Z" fill="#B65B52"/>
<path d="M270.424 184.103C270.424 184.103 257.978 182.281 240.396 182.788C240.396 182.788 245.597 148.339 247.247 143.8C248.898 139.261 273.028 147.726 273.028 147.726C273.028 147.726 269.75 161.396 268.969 169.991C268.188 178.585 271.687 182.772 270.424 184.103Z" fill="#263238"/>
<path opacity="0.2" d="M270.424 184.103C270.424 184.103 257.978 182.281 240.396 182.788C240.396 182.788 245.597 148.339 247.247 143.8C248.898 139.261 273.028 147.726 273.028 147.726C273.028 147.726 269.75 161.396 268.969 169.991C268.188 178.585 271.687 182.772 270.424 184.103Z" fill="black"/>
<path d="M232.379 270.737L236.886 272.014L237.959 264.999L238.537 261.246L234.03 259.97L233.261 264.999L232.379 270.737Z" fill="#B55B52"/>
<path d="M258.294 271.105L262.941 271.721L262.986 264.999L263.017 260.821L258.364 260.212L258.332 264.999L258.294 271.105Z" fill="#B55B52"/>
<path opacity="0.2" d="M258.364 260.212L258.332 264.999H262.986L263.017 260.821L258.364 260.212Z" fill="black"/>
<path opacity="0.2" d="M233.261 264.999H237.959L238.537 261.246L234.029 259.97L233.261 264.999Z" fill="black"/>
<path d="M232.434 270.034L237.553 269.896C237.744 269.891 237.915 270.019 237.963 270.204L239.038 274.326C239.15 274.754 238.836 275.17 238.394 275.174C236.546 275.193 233.874 275.157 231.553 275.22C228.839 275.293 227.113 275.16 223.931 275.246C222.006 275.298 221.403 273.375 222.202 273.179C225.84 272.281 228.218 272.459 231.317 270.428C231.655 270.207 232.029 270.045 232.434 270.034Z" fill="#263238"/>
<path d="M231.996 270.691C231.991 270.693 231.986 270.694 231.981 270.696C231.232 270.866 229.895 271.086 229.364 270.647C229.204 270.514 229.128 270.335 229.136 270.115C229.142 269.983 229.202 269.88 229.309 269.816C229.869 269.479 231.786 270.385 232.003 270.488C232.046 270.509 232.071 270.554 232.066 270.601C232.062 270.641 232.034 270.676 231.996 270.691ZM229.464 269.987C229.45 269.992 229.437 269.998 229.425 270.005C229.381 270.032 229.361 270.067 229.359 270.125C229.353 270.275 229.401 270.39 229.505 270.477C229.803 270.724 230.576 270.747 231.605 270.548C230.849 270.216 229.814 269.855 229.464 269.987Z" fill="black"/>
<path d="M231.995 270.691C231.97 270.701 231.94 270.701 231.914 270.69C231.339 270.452 230.182 269.473 230.248 268.943C230.264 268.819 230.347 268.663 230.651 268.623C230.877 268.594 231.086 268.652 231.273 268.796C231.887 269.267 232.059 270.521 232.065 270.574C232.071 270.613 232.054 270.652 232.023 270.676C232.015 270.682 232.005 270.688 231.995 270.691ZM230.568 268.869C230.477 268.903 230.471 268.953 230.469 268.973C230.429 269.291 231.219 270.063 231.809 270.393C231.735 270.028 231.541 269.281 231.138 268.971C230.997 268.863 230.848 268.821 230.681 268.843C230.634 268.849 230.597 268.858 230.568 268.869Z" fill="black"/>
<path d="M258.48 270.034L263.599 269.896C263.79 269.891 263.961 270.019 264.009 270.204L265.085 274.326C265.196 274.754 264.883 275.17 264.44 275.174C262.592 275.193 259.921 275.157 257.6 275.22C254.886 275.293 253.16 275.16 249.978 275.246C248.053 275.298 247.449 273.375 248.249 273.179C251.887 272.281 254.265 272.459 257.364 270.428C257.701 270.207 258.075 270.045 258.48 270.034Z" fill="#263238"/>
<path d="M258.042 270.691C258.037 270.693 258.033 270.694 258.027 270.696C257.278 270.866 255.941 271.086 255.41 270.647C255.251 270.514 255.174 270.335 255.183 270.115C255.188 269.983 255.248 269.88 255.356 269.816C255.915 269.479 257.832 270.385 258.049 270.488C258.092 270.509 258.117 270.554 258.112 270.601C258.108 270.641 258.081 270.676 258.042 270.691ZM255.511 269.987C255.496 269.992 255.483 269.998 255.471 270.005C255.428 270.032 255.408 270.067 255.405 270.125C255.399 270.275 255.447 270.39 255.552 270.477C255.849 270.724 256.622 270.747 257.651 270.548C256.895 270.216 255.86 269.855 255.511 269.987Z" fill="black"/>
<path d="M258.042 270.691C258.016 270.701 257.986 270.701 257.96 270.69C257.385 270.452 256.228 269.473 256.295 268.943C256.311 268.819 256.393 268.663 256.697 268.623C256.923 268.594 257.132 268.652 257.32 268.796C257.934 269.267 258.105 270.521 258.112 270.574C258.117 270.613 258.101 270.652 258.069 270.676C258.061 270.682 258.052 270.688 258.042 270.691ZM256.615 268.869C256.524 268.903 256.518 268.953 256.515 268.973C256.476 269.291 257.266 270.063 257.855 270.393C257.782 270.028 257.588 269.281 257.184 268.971C257.044 268.863 256.894 268.821 256.727 268.843C256.68 268.849 256.643 268.858 256.615 268.869Z" fill="black"/>
<path d="M267.882 168.927C270.344 179.603 266.119 263.564 266.119 263.564H257.954L254.463 193.591L241.603 263.564L232.875 262.929C238.581 208.726 243.624 176.365 243.624 176.365L243.612 172.275L267.882 168.927Z" fill="black"/>
<path opacity="0.3" d="M267.882 168.927C270.344 179.603 266.119 263.564 266.119 263.564H257.954L254.463 193.591L241.603 263.564L232.875 262.929C238.581 208.726 243.624 176.365 243.624 176.365L243.612 172.275L267.882 168.927Z" fill="black"/>
<path opacity="0.2" d="M251.724 208.482L254.46 193.594L253.934 185.716C253.934 185.716 250.181 199.378 251.724 208.482Z" fill="black"/>
<path d="M268.386 172.669H261.112V174.451L268.65 174.431L268.386 172.669Z" fill="#263238"/>
<path d="M260.447 172.669H247.668V174.484L260.447 174.451V172.669Z" fill="#263238"/>
<path d="M243.319 172.669V174.497L247.008 174.49V172.669H243.319Z" fill="#263238"/>
<path d="M252.734 174.474H254.627C254.871 174.474 255.068 174.276 255.068 174.033V173.11C255.068 172.867 254.871 172.669 254.627 172.669H252.734C252.491 172.669 252.293 172.867 252.293 173.11V174.033C252.293 174.276 252.491 174.474 252.734 174.474Z" stroke="white" stroke-width="0.5" stroke-miterlimit="10" stroke-linecap="round" stroke-linejoin="round"/>
<path d="M253.468 173.571H252.718" stroke="white" stroke-width="0.5" stroke-miterlimit="10" stroke-linecap="round" stroke-linejoin="round"/>
<path d="M274.976 139.008C273.242 143.409 272.011 147.929 271.107 152.2C270.447 155.325 269.969 158.317 269.611 161.037C268.769 167.41 268.129 172.4 268.129 172.4C268.129 172.4 251.446 172.315 243.612 172.274C241.97 148.889 249.197 136.955 249.197 136.955L255.417 135.627C255.417 135.627 256.26 135.646 256.687 135.668C259.449 135.806 263.919 136.484 266.996 137.023C267.642 137.137 268.295 137.267 268.929 137.404C272.157 138.102 274.976 139.008 274.976 139.008Z" fill="black"/>
<g opacity="0.6">
<path d="M274.976 139.008C273.242 143.409 272.011 147.929 271.107 152.2C270.447 155.325 269.969 158.317 269.611 161.037C268.769 167.41 268.129 172.4 268.129 172.4C268.129 172.4 251.446 172.315 243.612 172.274C241.97 148.889 249.197 136.955 249.197 136.955L255.417 135.627C255.417 135.627 256.26 135.646 256.687 135.668C259.449 135.806 263.919 136.484 266.996 137.023C267.642 137.137 268.295 137.267 268.929 137.404C272.157 138.102 274.976 139.008 274.976 139.008Z" fill="white"/>
</g>
<path d="M266.125 137.485C266.125 137.485 262.969 140.274 257.95 139.669C255.443 139.366 255.727 137.008 255.727 137.008C256.672 136.826 257.383 136.516 257.898 136.11C259.457 134.903 259.35 132.857 258.935 130.892L265.513 125.733C265.202 127.058 264.879 128.835 264.747 130.634C264.745 130.64 264.745 130.64 264.745 130.64C264.541 133.33 264.774 136.081 266.125 137.485Z" fill="#B55B52"/>
<path opacity="0.2" d="M264.747 130.634C264.745 130.64 264.745 130.64 264.745 130.64C263.432 133.346 261.235 136.271 257.898 136.11C259.458 134.903 259.351 132.857 258.935 130.892L265.514 125.733C265.203 127.057 264.879 128.834 264.747 130.634Z" fill="black"/>
<path d="M255.326 117.568C254.304 119.107 253.593 122.67 256.284 122.221C258.975 121.774 257.082 114.924 255.326 117.568Z" fill="#263238"/>
<path d="M266.865 123.38C265.868 127.802 265.512 130.449 262.878 132.356C260.687 133.947 258.12 133.736 256.206 132.442C254.866 131.538 253.849 130.106 253.5 128.39C253.447 128.126 253.407 127.855 253.387 127.585C253.077 123.4 254.76 116.866 259.42 115.837C264.02 114.82 267.861 118.952 266.865 123.38Z" fill="#B55B52"/>
<path d="M264.496 120.131L265.899 115.27C265.899 115.27 271.183 116.38 270.189 118.961C272.644 121.21 269.708 127.245 265.228 128.32C263.606 126.022 265.316 120.057 265.316 120.057C265.059 120.094 264.781 120.115 264.496 120.131Z" fill="#263238"/>
<path d="M267.988 127.383C267.445 128.476 266.446 129.211 265.488 129.508C264.047 129.956 263.271 128.67 263.624 127.283C263.943 126.034 265.076 124.296 266.545 124.454C267.992 124.61 268.608 126.133 267.988 127.383Z" fill="#B55B52"/>
<path d="M259.878 123.465C259.819 123.829 259.579 124.091 259.341 124.05C259.102 124.009 258.957 123.681 259.016 123.317C259.075 122.953 259.316 122.691 259.553 122.732C259.791 122.773 259.937 123.101 259.878 123.465Z" fill="#263238"/>
<path d="M255.761 122.759C255.702 123.124 255.462 123.386 255.224 123.345C254.986 123.304 254.841 122.976 254.899 122.611C254.958 122.247 255.198 121.985 255.437 122.026C255.675 122.066 255.821 122.395 255.761 122.759Z" fill="#263238"/>
<path d="M257.041 123.165C257.041 123.165 255.866 125.042 254.788 125.866C255.331 126.544 256.471 126.456 256.471 126.456L257.041 123.165Z" fill="#A02724"/>
<path d="M258.198 128.184C258.045 128.179 257.886 128.163 257.719 128.134C257.66 128.123 257.62 128.068 257.629 128.008C257.638 127.949 257.696 127.91 257.753 127.92C259.353 128.192 260.278 127.205 260.287 127.195C260.327 127.151 260.396 127.149 260.44 127.189C260.484 127.23 260.488 127.299 260.447 127.343C260.411 127.383 259.613 128.235 258.198 128.184Z" fill="#263238"/>
<path d="M261.361 122.353C261.286 122.35 261.214 122.308 261.175 122.235C260.723 121.376 259.929 121.287 259.921 121.286C259.802 121.274 259.713 121.168 259.725 121.049C259.735 120.93 259.841 120.843 259.96 120.854C260.002 120.858 260.996 120.97 261.558 122.036C261.614 122.142 261.574 122.273 261.468 122.328C261.434 122.347 261.398 122.354 261.361 122.353Z" fill="#263238"/>
<path d="M254.216 121.039C254.175 121.037 254.134 121.024 254.097 120.998C254 120.928 253.976 120.793 254.045 120.695C254.734 119.718 255.731 119.759 255.776 119.755C255.895 119.76 255.989 119.862 255.985 119.981C255.98 120.1 255.881 120.193 255.763 120.189C255.721 120.185 254.953 120.164 254.4 120.948C254.356 121.01 254.286 121.041 254.216 121.039Z" fill="#263238"/>
<path d="M257.041 119.32L260.653 118.534L259.172 119.612L263.887 119.321L262.764 119.756C262.764 119.756 265.264 120.915 267.788 119.612C270.312 118.31 270.19 118.962 270.19 118.962C270.19 118.962 271.114 115.838 264.496 113.31C257.877 110.782 252.097 115.367 255.718 118.411L256.361 117.916C256.361 117.916 256.037 118.533 257.041 119.32Z" fill="#263238"/>
<path d="M267.511 137.072C267.511 137.072 264.751 145.069 264.137 154.958C264.138 154.978 264.136 154.984 264.136 154.984C263.628 163.166 263.684 186.363 263.684 186.363C263.684 186.363 270.759 186.169 271.345 185.354C271.93 184.546 270.078 176.523 270.739 167.639C271.413 158.582 276.132 139.571 276.132 139.571C276.132 139.571 274.107 138.554 270.38 137.659C269.516 137.455 268.557 137.249 267.511 137.072Z" fill="#263238"/>
<path opacity="0.2" d="M276.13 139.57C276.13 139.57 275.219 143.24 274.144 148.124C273.827 149.549 273.497 151.081 273.173 152.651C272.078 157.951 271.029 163.726 270.738 167.64C270.078 176.524 271.933 184.549 271.345 185.354C270.758 186.173 263.683 186.364 263.683 186.364C263.683 186.364 263.63 163.165 264.138 154.988C264.138 154.988 264.138 154.981 264.138 154.961C264.752 145.068 267.511 137.069 267.511 137.069C268.554 137.247 269.517 137.452 270.382 137.663C274.111 138.554 276.13 139.57 276.13 139.57Z" fill="white"/>
<path d="M267.511 137.072C267.511 137.072 264.751 145.069 264.138 154.959C264.138 154.978 264.136 154.984 264.136 154.984L271.44 143.584L268.274 142.329L272.085 141.358L270.382 137.658C269.516 137.455 268.557 137.25 267.511 137.072Z" fill="#263238"/>
<path d="M239.896 183.931L241.588 185.432C241.588 185.432 241.109 171.524 246.583 154.47C246.847 153.648 247.109 152.858 247.361 152.105C252.201 137.736 255.225 135.744 255.417 135.628L253.099 135.736L248.894 135.944C242.374 148.753 239.896 183.931 239.896 183.931Z" fill="#263238"/>
<path opacity="0.2" d="M239.896 183.931L241.588 185.432C241.588 185.432 241.109 171.524 246.583 154.47C246.847 153.648 247.109 152.858 247.361 152.105C252.201 137.736 255.225 135.744 255.417 135.628L253.099 135.736L248.894 135.944C242.374 148.753 239.896 183.931 239.896 183.931Z" fill="white"/>
<path d="M251.67 140.068L248.817 140.88C248.817 140.88 247.382 148.178 247.361 152.104C252.201 137.735 255.225 135.743 255.417 135.627L253.099 135.735C252.022 136.302 250.326 137.318 249.145 138.634L251.67 140.068Z" fill="#263238"/>
<path opacity="0.2" d="M274.144 148.124C273.828 149.549 273.498 151.08 273.174 152.651C272.085 150.325 273.03 146.492 273.03 146.492C273.34 146.466 273.886 148.071 274.144 148.124Z" fill="black"/>
<path d="M271.771 172.199L273.046 174.713C273.583 177.824 269.463 177.822 269.463 177.822L267.482 178.622C266.81 178.894 266.001 178.566 265.571 177.849L264.489 176.048C263.996 175.227 264.173 174.197 264.881 173.765L266.473 172.795C266.937 172.512 267.463 172.348 268.004 172.319L271.771 172.199Z" fill="#B55B52"/>
<path d="M276.133 139.571C278.211 140.777 285.064 151.393 287.086 157.122C289.108 162.852 276.133 173.243 276.133 173.243L272.14 169.592C272.14 169.592 278.323 162.03 279.166 158.958C279.166 158.958 275.418 152.098 273.585 150.003C273.585 150.003 272.558 147.012 273.028 143.866C273.498 140.72 276.133 139.571 276.133 139.571Z" fill="#263238"/>
<path opacity="0.2" d="M276.133 139.571C278.211 140.777 285.064 151.393 287.086 157.122C289.108 162.852 276.133 173.243 276.133 173.243L272.14 169.592C272.14 169.592 278.323 162.03 279.166 158.958C279.166 158.958 275.418 152.098 273.585 150.003C273.585 150.003 272.558 147.012 273.028 143.866C273.498 140.72 276.133 139.571 276.133 139.571Z" fill="white"/>
<path opacity="0.2" d="M256.206 132.442C254.866 131.538 253.849 130.106 253.5 128.39C254.16 128.509 255.016 128.713 255.543 129.241C256.07 129.767 256.186 131.353 256.206 132.442Z" fill="black"/>
<path d="M247.598 129.536L247.197 132.326C247.687 135.445 251.588 134.122 251.588 134.122L253.721 134.243C254.445 134.284 255.105 133.715 255.283 132.898L255.729 130.845C255.932 129.909 255.435 128.991 254.626 128.809L252.807 128.4C252.277 128.282 251.727 128.295 251.204 128.441L247.598 129.536Z" fill="#B55B52"/>
<path d="M107.792 58.2562H86.3285C82.2524 58.2562 78.9478 61.5602 78.9478 65.637V74.5437C78.9478 78.6199 82.2524 81.9238 86.3279 81.9238H89.9434L90.8 87.223L94.9072 81.9238H107.792C111.868 81.9238 115.172 78.6192 115.172 74.5437V65.6363C115.173 61.5602 111.869 58.2562 107.792 58.2562Z" fill="black"/>
<path d="M88.6967 69.5805C88.6967 70.4036 88.0295 71.0715 87.2058 71.0715C86.3828 71.0715 85.7148 70.4042 85.7148 69.5805C85.7148 68.7569 86.3821 68.0896 87.2058 68.0896C88.0295 68.0896 88.6967 68.7575 88.6967 69.5805Z" fill="white"/>
<path d="M95.2666 69.5805C95.2666 70.4036 94.5993 71.0715 93.7756 71.0715C92.9519 71.0715 92.2847 70.4042 92.2847 69.5805C92.2847 68.7569 92.9519 68.0896 93.7756 68.0896C94.5993 68.0896 95.2666 68.7575 95.2666 69.5805Z" fill="white"/>
<path d="M101.836 69.5805C101.836 70.4036 101.169 71.0715 100.345 71.0715C99.5219 71.0715 98.854 70.4042 98.854 69.5805C98.854 68.7569 99.5213 68.0896 100.345 68.0896C101.169 68.0896 101.836 68.7575 101.836 69.5805Z" fill="white"/>
<path d="M108.406 69.5805C108.406 70.4036 107.738 71.0715 106.915 71.0715C106.091 71.0715 105.424 70.4042 105.424 69.5805C105.424 68.7569 106.091 68.0896 106.915 68.0896C107.738 68.0896 108.406 68.7575 108.406 69.5805Z" fill="white"/>
<path d="M104.919 125.681C107.761 108.17 95.8689 91.6711 78.3579 88.8292C60.8469 85.9872 44.3476 97.8789 41.5056 115.39C38.6637 132.901 50.5554 149.4 68.0664 152.242C85.5774 155.084 102.077 143.192 104.919 125.681Z" fill="black"/>
<path d="M73.2077 154.983C68.884 154.983 64.666 154.189 60.6703 152.624C47.3654 147.426 38.7676 134.831 38.7676 120.537C38.7676 101.543 54.2175 86.0905 73.2077 86.0905C92.2012 86.0905 107.654 101.543 107.654 120.537C107.654 132.558 101.246 143.877 90.9313 150.077C85.5919 153.286 79.4632 154.983 73.2077 154.983Z" stroke="#263238" stroke-linecap="round" stroke-linejoin="round" stroke-dasharray="2.14 10.71 53.57 5.36 21.43 16.07"/>
<path opacity="0.7" d="M105.329 120.537C105.329 132.232 99.0789 142.468 89.7333 148.085C84.9021 150.989 79.2525 152.659 73.2069 152.659C69.0819 152.659 65.1417 151.88 61.5183 150.461C49.5591 145.788 41.0913 134.152 41.0913 120.537C41.0913 102.796 55.4661 88.4143 73.2069 88.4143C90.9477 88.4143 105.329 102.796 105.329 120.537Z" fill="white"/>
<path d="M85.5051 122.415C88.7853 122.031 92.177 121.668 95.4381 121.222C97.0676 120.991 98.6912 120.746 100.195 120.442C100.941 120.29 101.665 120.104 102.227 119.936C102.496 119.857 102.744 119.755 102.755 119.765C102.752 119.786 102.712 119.796 102.466 120.067C102.401 120.141 102.318 120.245 102.259 120.344C102.163 120.483 102.084 120.629 102.006 120.814C101.802 121.296 101.772 121.623 101.763 121.913C101.758 122.509 101.92 122.827 101.977 122.948C102.039 123.071 102.082 123.091 102.061 123.053C102.041 122.988 101.882 122.773 101.694 122.563C101.304 122.126 100.746 121.63 100.156 121.151C98.9645 120.186 97.6293 119.217 96.2591 118.287C93.5208 116.41 90.6201 114.583 87.7847 112.733L87.7478 112.709C86.7802 112.077 86.5076 110.782 87.1393 109.814C87.6626 109.012 88.6447 108.689 89.5153 108.961C92.907 110.022 96.1443 111.304 99.3816 112.829C100.993 113.609 102.6 114.425 104.214 115.447C105.024 115.965 105.835 116.515 106.698 117.255C107.132 117.637 107.577 118.04 108.062 118.671C108.299 118.976 108.562 119.368 108.808 119.879C109.045 120.388 109.322 121.133 109.307 122.159C109.291 122.662 109.219 123.203 108.933 123.884C108.809 124.165 108.673 124.403 108.523 124.634C108.397 124.816 108.251 125.007 108.115 125.162C107.581 125.755 107.185 126.014 106.821 126.265C106.102 126.73 105.557 126.97 105.025 127.201C103.98 127.645 103.047 127.925 102.125 128.19C100.292 128.71 98.5309 129.085 96.7687 129.409C93.241 130.052 89.803 130.506 86.2384 130.763C83.9303 130.929 81.9239 129.193 81.7576 126.884C81.5959 124.642 83.2301 122.685 85.4398 122.423L85.5051 122.415Z" fill="#EBC0BB"/>
<path d="M80.9385 120.241C84.453 120.837 98.3559 120.241 98.3559 120.241L101.971 130.043C101.971 130.043 92.1677 132.943 87.3167 132.674L80.9385 120.241Z" fill="black"/>
<path d="M90.9199 110.827L88.6601 103.477L82.6323 106.454C82.6323 106.454 83.4903 111.814 87.8668 112.758L90.9199 110.827Z" fill="#EEC1BB"/>
<path d="M84.7838 99.6132L80.8218 102.908L82.6322 106.454L88.6599 103.477L84.7838 99.6132Z" fill="#EEC1BB"/>
<path d="M83.1214 101.405C83.6335 103.803 82.7986 106.128 81.2562 106.597C79.7138 107.067 78.0479 105.502 77.5358 103.104C77.023 100.705 77.8585 98.3809 79.4009 97.9117C80.9434 97.4424 82.6092 99.0066 83.1214 101.405Z" fill="#263238"/>
<path opacity="0.2" d="M83.1214 101.405C83.6335 103.803 82.7986 106.128 81.2562 106.597C79.7138 107.067 78.0479 105.502 77.5358 103.104C77.023 100.705 77.8585 98.3809 79.4009 97.9117C80.9434 97.4424 82.6092 99.0066 83.1214 101.405Z" fill="white"/>
<path d="M81.2588 104.489C81.2588 104.489 83.0401 106.909 83.2223 107.999C83.4044 109.09 82.1986 109.406 81.2766 109.541" stroke="#263238" stroke-width="0.7494" stroke-miterlimit="10"/>
<path d="M89.733 148.085C84.9018 150.989 79.2522 152.659 73.2066 152.659C69.0816 152.659 65.1414 151.88 61.518 150.461C61.3992 148.389 61.2408 146.395 61.0626 144.488C60.7788 141.419 60.4224 138.574 60.0594 136.027C58.8384 127.658 57.4326 122.437 57.4326 122.437C72.045 115.382 85.7796 121.85 85.7796 121.85C89.4954 127.222 90.0366 138.607 89.733 148.085Z" fill="black"/>
<path opacity="0.2" d="M60.0596 136.027C60.4239 138.577 60.7796 141.419 61.0648 144.491C62.2917 142.052 63.7437 136.225 61.8277 130.042L60.0596 136.027Z" fill="black"/>
<path d="M63.732 125.134C61.6913 123.467 63.4515 120.94 63.4515 120.94C63.0007 119.392 65.2513 116.382 70.5353 116.573C76.6812 116.795 80.5692 118.661 80.5692 120.436C80.5692 120.436 83.105 122.274 83.5155 123.072C84.9246 125.812 80.5725 130.042 80.5725 130.042C80.5725 130.042 70.8705 130.964 63.732 125.134Z" fill="#263238"/>
<path opacity="0.2" d="M81.6787 128.81C81.0689 129.562 80.5706 130.044 80.5706 130.044C80.5706 130.044 79.1298 130.179 76.9446 130.013C73.469 129.751 68.1171 128.722 63.7314 125.136C61.6887 123.466 63.4542 120.94 63.4542 120.94C63.0027 119.388 65.2513 116.38 70.5399 116.569C76.6839 116.791 80.5706 118.659 80.5706 120.433C80.5706 120.433 83.1037 122.27 83.5155 123.07C84.4494 124.883 82.8582 127.345 81.6787 128.81Z" fill="white"/>
<path opacity="0.2" d="M81.6788 128.81C81.069 129.562 80.5707 130.044 80.5707 130.044C80.5707 130.044 79.1299 130.179 76.9446 130.013C77.5149 129.047 78.4567 128.287 78.6388 128.144C70.1123 127.044 66.0665 121.193 65.7655 120.045C65.4567 118.842 69.5817 117.567 69.6213 117.615C69.6213 117.615 74.6247 117.258 78.4804 119.784C81.8214 121.977 80.3647 126.743 79.9133 127.978C80.7442 128.01 81.2986 128.342 81.6788 128.81Z" fill="black"/>
<path d="M80.5778 129.13C80.5778 129.13 81.9479 130.853 82.5743 135.121C83.2006 139.388 82.8092 142.181 82.8092 142.181C82.8092 142.181 81.2827 142.128 80.5778 141.658C79.8729 141.189 78.9482 141.292 78.9482 141.292C78.9482 141.292 79.5079 137.665 79.3581 134.847C79.207 132.027 79.0505 129.443 80.5778 129.13Z" fill="#263238"/>
<path opacity="0.2" d="M82.8104 142.181C82.8104 142.181 81.2825 142.126 80.5776 141.658C79.8728 141.191 78.9468 141.294 78.9468 141.294C78.9468 141.294 79.1289 140.091 79.2636 138.531C79.3586 137.384 79.422 136.037 79.3586 134.842C79.2319 132.53 79.1052 130.376 79.913 129.506C80.0793 129.316 80.3011 129.181 80.5776 129.126C80.5776 129.126 80.6252 129.189 80.7123 129.324C80.7123 129.324 80.7123 129.324 80.7123 129.332C81.0845 129.894 82.0659 131.683 82.5728 135.119C83.1985 139.387 82.8104 142.181 82.8104 142.181Z" fill="white"/>
<path opacity="0.2" d="M80.7124 129.332C80.7124 129.459 80.7282 130.528 80.024 131.533C80.024 131.533 80.2933 135.278 80.024 137.265C79.9606 137.757 79.6676 138.176 79.2637 138.532C79.3587 137.384 79.4221 136.038 79.3587 134.843C79.232 132.531 79.1053 130.377 79.9131 129.507C80.1666 129.356 80.4358 129.293 80.7124 129.324C80.7124 129.324 80.7124 129.324 80.7124 129.332Z" fill="black"/>
<path d="M79.5597 128.934C79.5597 128.934 77.9156 128.66 77.2107 130.344C76.5059 132.028 76.5059 135.317 76.5059 135.317C76.5059 135.317 77.0147 134.612 77.6411 135.668C78.2674 136.726 79.5597 136.373 79.5597 136.373C79.5597 136.373 79.3043 131.003 79.8428 130.341C80.382 129.678 79.5597 128.934 79.5597 128.934Z" fill="#263238"/>
<path opacity="0.2" d="M79.5597 128.934C79.5597 128.934 77.9156 128.66 77.2107 130.344C76.5059 132.028 76.5059 135.317 76.5059 135.317C76.5059 135.317 77.0147 134.612 77.6411 135.668C78.2674 136.726 79.5597 136.373 79.5597 136.373C79.5597 136.373 79.3043 131.003 79.8428 130.341C80.382 129.678 79.5597 128.934 79.5597 128.934Z" fill="white"/>
<path d="M80.6743 128.484C80.6743 128.484 80.0256 127.654 78.6699 128.122C78.6699 128.122 79.7187 129.45 79.7187 130.747H79.7979C79.7979 130.747 81.1212 129.519 80.6743 128.484Z" fill="#263238"/>
<path opacity="0.3" d="M80.6743 128.484C80.6743 128.484 80.0256 127.654 78.6699 128.122C78.6699 128.122 79.7187 129.45 79.7187 130.747H79.7979C79.7979 130.747 81.1212 129.519 80.6743 128.484Z" fill="white"/>
<path d="M79.7967 128.279C68.9522 126.556 66.0918 120.354 66.0918 120.354C68.7232 117.653 67.3781 110.235 66.2832 106.185L74.4989 112.781C73.9471 115.926 74.0798 119.277 78.6754 120.354C78.6754 120.354 80.563 121.09 80.5696 125.343C80.5729 127.389 79.8092 128.282 79.7967 128.279Z" fill="#EEC1BB"/>
<path opacity="0.2" d="M69.6329 108.877L74.4958 112.778C74.3625 113.522 74.2721 114.277 74.2741 115.011C72.5304 114.762 70.0204 112.869 69.7029 111.062C69.5439 110.162 69.5168 109.297 69.6329 108.877Z" fill="black"/>
<path d="M59.7171 98.3268C63.4303 98.3268 66.4405 95.3167 66.4405 91.6034C66.4405 87.8902 63.4303 84.88 59.7171 84.88C56.0038 84.88 52.9937 87.8902 52.9937 91.6034C52.9937 95.3167 56.0038 98.3268 59.7171 98.3268Z" fill="#263238"/>
<path d="M68.5023 86.794C76.6632 86.3135 84.5027 93.7003 80.5697 103.188C76.6361 112.675 64.4671 111.864 60.0596 103.621C56.8414 97.6015 59.1785 87.3425 68.5023 86.794Z" fill="#263238"/>
<path d="M62.8256 98.0596C64.0539 104.597 64.4354 107.383 68.1657 110.518C73.777 115.235 81.4865 112.74 82.223 106.075C82.8863 100.075 80.7658 90.3923 74.0291 88.2335C67.3928 86.1076 61.5974 91.5223 62.8256 98.0596Z" fill="#EEC1BB"/>
<path d="M68.4467 93.3366C64.8391 97.9923 72.2489 103.346 64.8391 103.035C57.4293 102.725 60.4395 92.2621 64.8391 89.8842C69.238 87.5055 68.4467 93.3366 68.4467 93.3366Z" fill="#263238"/>
<path d="M73.1817 99.1492C73.2609 99.7023 73.6127 100.129 73.9665 100.104C74.3202 100.077 74.5433 99.6079 74.4641 99.0548C74.3849 98.5017 74.0331 98.0747 73.6794 98.1005C73.325 98.1262 73.1019 98.5961 73.1817 99.1492Z" fill="#263238"/>
<path d="M79.8588 98.7552C79.938 99.3083 80.2898 99.7353 80.6435 99.7095C80.9979 99.6831 81.2204 99.2139 81.1412 98.6608C81.062 98.1077 80.7102 97.6807 80.3564 97.7064C80.002 97.7328 79.7796 98.2021 79.8588 98.7552Z" fill="#263238"/>
<path d="M80.2041 97.7487L81.4508 97.2695C81.4508 97.2695 80.9321 98.3565 80.2041 97.7487Z" fill="#263238"/>
<path d="M78.1318 99.7993C78.1318 99.7993 79.3931 102.113 80.5699 103.187C79.9521 103.922 78.6915 103.699 78.6915 103.699L78.1318 99.7993Z" fill="#D4827D"/>
<path d="M62.1908 104.364C62.8607 105.704 63.9596 106.531 64.9707 106.799C66.492 107.203 67.152 105.459 66.6458 103.716C66.1897 102.148 64.8486 100.049 63.3623 100.428C61.8978 100.801 61.4252 102.831 62.1908 104.364Z" fill="#EEC1BB"/>
<path d="M71.3172 96.1759C71.4023 96.1773 71.4848 96.1449 71.5442 96.0783C72.4708 95.0414 73.6463 95.2632 73.6602 95.2658C73.8344 95.2995 73.9968 95.1873 74.0192 95.0104C74.0416 94.8342 73.9162 94.6626 73.74 94.6269C73.6786 94.615 72.2035 94.3345 71.0532 95.6222C70.9383 95.7502 70.9555 95.9568 71.0908 96.0829C71.1568 96.1436 71.238 96.1746 71.3172 96.1759Z" fill="#263238"/>
<path d="M81.3596 95.5786C81.4401 95.5846 81.5206 95.5615 81.5833 95.506C81.7127 95.3925 81.7173 95.1879 81.5945 95.05C80.361 93.6646 78.8905 93.8098 78.8278 93.8171C78.6522 93.8369 78.5361 93.9966 78.5691 94.1748C78.6014 94.3523 78.7697 94.4804 78.9453 94.4619C79.0027 94.4553 80.1458 94.3589 81.1259 95.4611C81.1899 95.5318 81.2751 95.572 81.3596 95.5786Z" fill="#263238"/>
<path d="M73.5269 98.1421L74.7736 97.6636C74.7736 97.6636 74.2548 98.7506 73.5269 98.1421Z" fill="#263238"/>
<path d="M71.5773 90.0544C71.5773 90.0544 69.6032 98.8166 63.1517 99.7993C56.7002 100.781 58.213 91.2688 66.8134 87.7642C75.4139 84.2603 81.0391 90.4696 81.6166 92.2998C82.3393 94.5926 81.4509 96.1753 81.4509 96.1753C81.4509 96.1753 78.3152 90.2254 71.5773 90.0544Z" fill="#263238"/>
<path d="M78.8366 105.348C78.4043 106.249 77.9634 107.943 77.9634 107.943C77.803 107.931 77.642 107.919 77.4822 107.898C75.3069 107.677 74.371 106.855 73.9935 106.013C73.7882 105.551 73.7559 105.077 73.7796 104.695C73.8027 104.254 73.9196 103.944 73.9196 103.944C75.0026 104.751 77.0143 105.113 78.0974 105.262C78.5488 105.328 78.8366 105.348 78.8366 105.348Z" fill="#263238"/>
<path d="M78.0959 105.261L77.8187 106.019C75.7707 105.806 74.357 105.381 73.7788 104.695C73.8019 104.253 73.9187 103.943 73.9187 103.943C75.0018 104.75 77.0135 105.112 78.0959 105.261Z" fill="white"/>
<path d="M77.4824 107.898C75.3071 107.676 74.3712 106.855 73.9937 106.012C74.7322 106.116 75.6107 106.323 76.3604 106.737C76.9346 107.049 77.2719 107.478 77.4824 107.898Z" fill="#DE5753"/>
<path d="M66.9795 102.281C67.4917 104.679 66.6568 107.004 65.1143 107.473C63.5719 107.942 61.9061 106.378 61.3939 103.98C60.8818 101.581 61.7167 99.2568 63.2591 98.7875C64.8008 98.3182 66.4667 99.8824 66.9795 102.281Z" fill="#263238"/>
<path opacity="0.2" d="M66.9795 102.281C67.4917 104.679 66.6568 107.004 65.1143 107.473C63.5719 107.942 61.9061 106.378 61.3939 103.98C60.8818 101.581 61.7167 99.2568 63.2591 98.7875C64.8008 98.3182 66.4667 99.8824 66.9795 102.281Z" fill="white"/>
<path d="M63.9035 101.079C63.9035 101.079 63.5524 89.2571 69.6383 86.8356C69.6383 86.8356 68.8456 86.6263 67.9711 86.9583C67.0966 87.2903 61.8556 89.0769 61.946 100.851L63.9035 101.079Z" fill="#263238"/>
<path opacity="0.4" d="M63.9238 99.6936C63.8875 100.554 63.9027 101.08 63.9027 101.08L61.9451 100.849C61.9418 100.596 61.9431 100.348 61.9491 100.105C62.0791 89.0016 67.1175 87.283 67.9716 86.9569C68.8454 86.6276 69.6401 86.8381 69.6401 86.8381C64.8419 88.7449 64.0433 96.4999 63.9238 99.6936Z" fill="white"/>
<path d="M81.9075 109.879L80.7677 110.046C80.5736 110.074 80.3934 109.94 80.3651 109.746L80.3446 109.605C80.3162 109.411 80.4509 109.231 80.6449 109.202L81.7847 109.036C81.9788 109.008 82.1589 109.142 82.1873 109.336L82.2078 109.477C82.2362 109.671 82.1015 109.851 81.9075 109.879Z" fill="#263238"/>
<path opacity="0.2" d="M81.9075 109.879L80.7677 110.046C80.5736 110.074 80.3934 109.94 80.3651 109.746L80.3446 109.605C80.3162 109.411 80.4509 109.231 80.6449 109.202L81.7847 109.036C81.9788 109.008 82.1589 109.142 82.1873 109.336L82.2078 109.477C82.2362 109.671 82.1015 109.851 81.9075 109.879Z" fill="white"/>
<path opacity="0.2" d="M63.9032 101.08L61.9456 100.849C61.9423 100.596 61.9436 100.348 61.9496 100.106C61.9496 100.106 62.5376 99.171 63.9243 99.6944C63.8873 100.554 63.9032 101.08 63.9032 101.08Z" fill="black"/>
<path d="M65.4378 102.888C65.8232 104.691 65.1956 106.44 64.0353 106.792C62.8757 107.145 61.623 105.969 61.2376 104.165C60.8521 102.362 61.4798 100.614 62.6401 100.261C63.7997 99.9088 65.0524 101.085 65.4378 102.888Z" fill="#263238"/>
<path opacity="0.4" d="M65.4378 102.888C65.8232 104.691 65.1956 106.44 64.0353 106.792C62.8757 107.145 61.623 105.969 61.2376 104.165C60.8521 102.362 61.4798 100.614 62.6401 100.261C63.7997 99.9088 65.0524 101.085 65.4378 102.888Z" fill="white"/>
<path d="M70.2366 140.385L77.7389 138.697L75.2348 132.458C75.2348 132.458 69.8248 132.9 68.5464 137.192L70.2366 140.385Z" fill="#EEC1BB"/>
<path d="M81.8903 135.13L78.9104 130.926L75.2349 132.458L77.7389 138.697L81.8903 135.13Z" fill="#EEC1BB"/>
<path d="M61.5842 129.586C60.4054 132.671 59.1547 135.845 58.0406 138.942C57.4895 140.493 56.9549 142.045 56.5286 143.519C56.3174 144.25 56.1471 144.978 56.0356 145.554C55.9801 145.828 55.9564 146.096 55.9425 146.101C55.9247 146.088 55.9346 146.049 55.8079 145.706C55.7729 145.613 55.7188 145.491 55.6587 145.394C55.5795 145.244 55.4871 145.107 55.3597 144.952C55.0264 144.548 54.7505 144.37 54.4984 144.227C53.9717 143.947 53.6147 143.943 53.4827 143.937C53.3447 143.935 53.3058 143.965 53.35 143.963C53.4167 143.976 53.6807 143.935 53.9539 143.865C54.5222 143.721 55.2211 143.457 55.9181 143.157C57.3252 142.547 58.8023 141.813 60.2615 141.029C63.1933 139.472 66.156 137.748 69.1095 136.092L69.1484 136.07C70.1563 135.505 71.4314 135.864 71.9957 136.872C72.4643 137.708 72.2953 138.727 71.6512 139.374C69.1392 141.887 66.5032 144.163 63.6526 146.325C62.2158 147.391 60.748 148.438 59.094 149.395C58.2591 149.872 57.3965 150.337 56.3411 150.759C55.8019 150.966 55.2389 151.173 54.4542 151.311C54.0747 151.38 53.6048 151.432 53.0378 151.413C52.4775 151.387 51.6895 151.287 50.7866 150.797C50.347 150.55 49.9022 150.236 49.4303 149.667C49.2382 149.427 49.091 149.196 48.9557 148.955C48.8528 148.76 48.7511 148.542 48.6766 148.349C48.3994 147.602 48.3518 147.131 48.299 146.692C48.2198 145.839 48.2594 145.244 48.3004 144.666C48.3914 143.535 48.5749 142.577 48.7676 141.638C49.1564 139.772 49.6395 138.038 50.1688 136.326C51.2334 132.902 52.424 129.645 53.847 126.368C54.769 124.245 57.2368 123.272 59.3593 124.194C61.4218 125.089 62.3986 127.444 61.6079 129.524L61.5842 129.586Z" fill="#EBC0BB"/>
<path d="M57.4315 122.434C57.4315 122.434 62.7451 124.644 63.3378 130.747L57.2493 142.456L47.1929 143.443C47.1929 143.443 52.1059 123.633 57.4315 122.434Z" fill="black"/>
</svg>
