<svg width="44" height="44" viewBox="0 0 44 44" fill="none" xmlns="http://www.w3.org/2000/svg">
<g clip-path="url(#clip0_2010_929)">
<path fill-rule="evenodd" clip-rule="evenodd" d="M11.5667 38.5737L12.1599 39.622C12.1603 39.6225 12.1606 39.6231 12.1609 39.6236C12.6351 40.4671 12.3345 41.5434 11.4958 42.0171L9.46256 43.1694C9.46189 43.1699 9.4612 43.1703 9.46049 43.1706C8.61698 43.6448 7.54071 43.3442 7.06689 42.5051L1.08772 31.9402C0.609241 31.096 0.909994 30.0188 1.74962 29.5445L3.78526 28.3921L3.78587 28.3917C4.62515 27.9177 5.70177 28.2157 6.17973 29.055L6.18059 29.0566L6.66554 29.9135L12.0166 26.8154C13.6097 25.8942 15.2369 25.2909 16.9866 25.8591C18.6993 26.4144 21.4955 27.6113 24.3491 28.127C24.3796 28.1325 24.4096 28.14 24.439 28.1496C25.8629 28.6106 26.7294 30.0498 26.3405 31.4956C26.2738 31.7441 26.1829 31.973 26.0693 32.1801C26.4067 32.0913 26.7363 31.9548 27.0598 31.7663L34.3097 27.5438C36.9134 26.027 38.6484 26.1855 39.6309 26.8447C40.4722 27.4092 40.8614 28.3731 40.8362 29.3191C40.8108 30.2745 40.3567 31.1877 39.6075 31.6491L26.4521 39.7487C25.0756 40.5983 23.5678 40.7976 22.0058 40.3809L22.0051 40.3806L12.7384 37.8971L11.5667 38.5737ZM7.34547 31.1149L10.8868 37.3723L12.2957 36.5587C12.3742 36.5134 12.4609 36.484 12.5508 36.4721C12.6406 36.4603 12.7319 36.4663 12.8195 36.4898L22.3618 39.0472C23.5438 39.3624 24.6855 39.2169 25.7271 38.574L25.7277 38.5737L38.8836 30.4737C39.2319 30.2592 39.4142 29.8286 39.4506 29.3872C39.5067 28.7072 39.1869 27.9571 38.346 27.7809C37.5733 27.6191 36.4852 27.8741 35.0046 28.7367L27.7548 32.9589C26.5986 33.6327 25.3867 33.8188 24.0659 33.6086L24.0636 33.6082L23.1647 33.462L23.1638 33.4618C23.1545 33.4603 23.1452 33.4586 23.136 33.4567L23.135 33.4565C21.4994 33.1208 19.9825 32.6266 18.2994 32.1743C17.9315 32.0754 17.7131 31.6965 17.8119 31.3286C17.9108 30.9607 18.2897 30.7423 18.6576 30.8412C20.3034 31.2835 21.7868 31.7684 23.3846 32.0985C24.2123 32.1907 24.8171 31.8462 25.0074 31.1375L25.0075 31.1372C25.2006 30.4193 24.7514 29.7224 24.0536 29.4763C21.1484 28.9434 18.3046 27.7375 16.5606 27.1721L16.5603 27.172C15.1973 26.7294 13.9487 27.2926 12.7078 28.0103L7.34547 31.1149ZM4.97999 29.7377L4.97948 29.7368C4.87612 29.557 4.64516 29.4918 4.46476 29.5936L2.42972 30.7457L2.42912 30.7461C2.24915 30.8477 2.18617 31.0788 2.28866 31.2595L2.28883 31.2599L8.26818 41.8253L8.26852 41.8258C8.37041 42.0062 8.60206 42.0693 8.78341 41.9677L10.8152 40.8161L10.816 40.8156C10.9965 40.7137 11.0596 40.482 10.9579 40.3005L4.97999 29.7377ZM4.19076 30.864C4.65224 30.7953 5.08076 31.114 5.14944 31.5754C5.21535 32.0369 4.89674 32.4681 4.43526 32.534C3.97377 32.6027 3.54525 32.2813 3.47657 31.8199C3.41066 31.3584 3.72927 30.9299 4.19076 30.864ZM15.9185 8.1249C15.9185 8.00375 15.9504 7.88472 16.0109 7.7798C16.0715 7.67488 16.1586 7.58775 16.2636 7.52719L19.8857 5.4359L22.8444 3.72783L26.4666 1.63654C26.5715 1.57596 26.6905 1.54407 26.8117 1.54407C26.9328 1.54407 27.0518 1.57596 27.1568 1.63654L37.3598 7.52719C37.4647 7.58777 37.5518 7.67489 37.6124 7.77981C37.673 7.88473 37.7049 8.00375 37.7049 8.1249V19.9062C37.7049 20.0274 37.673 20.1464 37.6124 20.2513C37.5518 20.3562 37.4647 20.4433 37.3598 20.5039L27.1568 26.3946C27.0518 26.4551 26.9328 26.487 26.8117 26.487C26.6905 26.487 26.5715 26.4551 26.4666 26.3946L16.2636 20.5039C16.1586 20.4433 16.0715 20.3562 16.0109 20.2513C15.9504 20.1464 15.9185 20.0274 15.9185 19.9062V8.1249ZM20.2308 6.83061L17.9891 8.1249L26.8117 13.2185L29.0534 11.9243L20.2308 6.83061ZM23.1894 5.12246L21.6112 6.03361L30.4338 11.1273L32.012 10.2162L23.1894 5.12246ZM35.6343 8.1249L26.8117 3.03125L24.5698 4.32554L33.3924 9.41919L35.6343 8.1249ZM27.5019 24.6013L36.3245 19.5077V9.32032L34.0827 10.6146V14.8562C34.0827 14.9774 34.0508 15.0964 33.9902 15.2013C33.9297 15.3062 33.8425 15.3933 33.7376 15.4539L30.7788 17.162C30.6739 17.2226 30.5549 17.2545 30.4337 17.2545C30.3126 17.2545 30.1935 17.2226 30.0886 17.1621C29.9837 17.1015 29.8965 17.0143 29.836 16.9094C29.7754 16.8044 29.7436 16.6854 29.7436 16.5642V13.1198L27.5019 14.4141V24.6013ZM17.2989 9.32032V19.5077L26.1215 24.6013V14.4141L17.2989 9.32032ZM32.7023 11.4116L31.124 12.3228V15.3689L32.7023 14.4577V11.4116ZM36.2514 3.96414C36.2039 4.14091 36.0883 4.2916 35.9298 4.38312C35.7712 4.47463 35.5829 4.49948 35.4061 4.45219C35.2293 4.40474 35.0786 4.28905 34.9871 4.13055C34.8956 3.97204 34.8707 3.78369 34.918 3.60688L35.5855 1.11544C35.633 0.938691 35.7487 0.788015 35.9072 0.696518C36.0657 0.605022 36.2541 0.580188 36.4309 0.627473C36.6076 0.674908 36.7583 0.790594 36.8499 0.949104C36.9414 1.10761 36.9662 1.29598 36.9189 1.47279L36.2514 3.96414ZM39.7781 12.0615C39.6014 12.0139 39.4508 11.898 39.3595 11.7394C39.2681 11.5808 39.2435 11.3925 39.2909 11.2157C39.3899 10.8479 39.7689 10.6295 40.1367 10.7285L42.6299 11.3991C42.9977 11.4981 43.2161 11.8771 43.1171 12.2449C43.0182 12.6128 42.6392 12.8311 42.2713 12.7321L39.7781 12.0615ZM39.6906 7.28519C39.532 7.37661 39.3436 7.40135 39.1669 7.35397C38.9901 7.30658 38.8393 7.19096 38.7478 7.03249C38.6563 6.87395 38.6315 6.68559 38.6789 6.5088C38.7263 6.33201 38.8419 6.18126 39.0004 6.08968L41.2382 4.79772C41.3968 4.70627 41.5851 4.68151 41.7619 4.72888C41.9387 4.77625 42.0895 4.89187 42.181 5.05034C42.2725 5.20889 42.2972 5.39723 42.2498 5.57401C42.2025 5.75079 42.0869 5.90153 41.9284 5.99314L39.6906 7.28519ZM18.7053 3.60688C18.7526 3.78369 18.7278 3.97204 18.6362 4.13055C18.5447 4.28905 18.394 4.40474 18.2173 4.45219C18.0405 4.49948 17.8521 4.47463 17.6936 4.38312C17.5351 4.2916 17.4194 4.14091 17.3719 3.96414L16.7044 1.47279C16.6571 1.29598 16.6819 1.10761 16.7734 0.949104C16.8649 0.790594 17.0156 0.674908 17.1924 0.627473C17.3692 0.580188 17.5576 0.605022 17.7161 0.696518C17.8746 0.788015 17.9903 0.938691 18.0377 1.11544L18.7053 3.60688ZM13.4866 10.7285C13.6633 10.6811 13.8517 10.7057 14.0103 10.7971C14.1689 10.8884 14.2847 11.039 14.3323 11.2157C14.3798 11.3925 14.3551 11.5808 14.2638 11.7394C14.1724 11.898 14.0219 12.0139 13.8451 12.0615L11.352 12.7321C10.9842 12.8311 10.6052 12.6128 10.5062 12.2449C10.4073 11.8771 10.6255 11.4981 10.9934 11.3991L13.4866 10.7285ZM14.6229 6.08968C14.7814 6.18126 14.897 6.33201 14.9444 6.5088C14.9917 6.68559 14.967 6.87395 14.8755 7.03249C14.6851 7.36241 14.2626 7.4756 13.9327 7.28519L11.6949 5.99314C11.5364 5.90157 11.4208 5.75082 11.3735 5.57403C11.3261 5.39724 11.3508 5.20888 11.4423 5.05034C11.5339 4.89187 11.6846 4.77625 11.8614 4.72888C12.0382 4.68151 12.2266 4.70627 12.3851 4.79772L14.6229 6.08968Z" fill="#05161C"/>
</g>
<defs>
<clipPath id="clip0_2010_929">
<rect width="44" height="44" fill="white"/>
</clipPath>
</defs>
</svg>
