<svg width="12" height="12" viewBox="0 0 12 12" fill="none" xmlns="http://www.w3.org/2000/svg">
<path d="M10.6057 5.42651H6.57282V1.39359C6.57282 1.02237 6.27188 0.721436 5.90067 0.721436C5.52945 0.721436 5.22851 1.02237 5.22851 1.39359V5.42651H1.19559C0.824373 5.42651 0.523438 5.72745 0.523438 6.09866C0.523438 6.46988 0.824373 6.77082 1.19559 6.77082H5.22851V10.8037C5.22851 11.175 5.52945 11.4759 5.90067 11.4759C6.27188 11.4759 6.57282 11.175 6.57282 10.8037V6.77082H10.6057C10.977 6.77082 11.2779 6.46988 11.2779 6.09866C11.2779 5.72745 10.977 5.42651 10.6057 5.42651Z" fill="white"/>
</svg>
