<svg width="60" height="60" viewBox="0 0 60 60" fill="none" xmlns="http://www.w3.org/2000/svg">
<path d="M26.2254 5.57501L13.7504 10.275C10.8754 11.35 8.52539 14.75 8.52539 17.8V36.375C8.52539 39.325 10.4754 43.2 12.8504 44.975L23.6004 53C27.1254 55.65 32.9254 55.65 36.4504 53L47.2004 44.975C49.5754 43.2 51.5254 39.325 51.5254 36.375V17.8C51.5254 14.725 49.1754 11.325 46.3004 10.25L33.8254 5.57501C31.7004 4.80001 28.3004 4.80001 26.2254 5.57501Z" stroke="#05161C" stroke-width="3.6" stroke-linecap="round" stroke-linejoin="round"/>
<path d="M29.9995 31.25C32.7609 31.25 34.9995 29.0114 34.9995 26.25C34.9995 23.4886 32.7609 21.25 29.9995 21.25C27.2381 21.25 24.9995 23.4886 24.9995 26.25C24.9995 29.0114 27.2381 31.25 29.9995 31.25Z" stroke="#292929" stroke-width="3.6" stroke-miterlimit="10" stroke-linecap="round" stroke-linejoin="round"/>
<path d="M30 31.25V38.75" stroke="#292929" stroke-width="3.6" stroke-miterlimit="10" stroke-linecap="round" stroke-linejoin="round"/>
</svg>
