<svg width="25" height="25" viewBox="0 0 25 25" fill="none" xmlns="http://www.w3.org/2000/svg">
<path d="M9.07515 19.1583C9.20785 19.1591 9.3394 19.1337 9.46225 19.0835C9.5851 19.0333 9.69684 18.9594 9.79106 18.8659L15.8411 12.8159C16.0289 12.627 16.1343 12.3714 16.1343 12.105C16.1343 11.8387 16.0289 11.5831 15.8411 11.3942L9.79106 5.34417C9.59817 5.17898 9.35004 5.09266 9.09627 5.10246C8.84249 5.11226 8.60176 5.21746 8.42219 5.39704C8.24261 5.57662 8.1374 5.81735 8.1276 6.07112C8.1178 6.3249 8.20412 6.57302 8.36931 6.76592L13.7034 12.1L8.36931 17.4341C8.22772 17.5745 8.13095 17.7538 8.09124 17.9492C8.05152 18.1446 8.07065 18.3475 8.1462 18.532C8.22175 18.7166 8.35033 18.8746 8.51568 18.9861C8.68103 19.0976 8.87573 19.1575 9.07515 19.1583Z" fill="#05161C"/>
</svg>
