<svg width="100" height="100" viewBox="0 0 100 100" fill="none" xmlns="http://www.w3.org/2000/svg">
<path d="M96.4808 49.9979C98.0251 48.1995 99.1074 46.0514 99.6336 43.74C100.16 41.4286 100.114 39.0237 99.5006 36.734C98.887 34.4442 97.724 32.3388 96.1125 30.6003C94.501 28.8617 92.4897 27.5426 90.253 26.7574C90.6912 24.4277 90.5544 22.0262 89.8544 19.7612C89.1544 17.4963 87.9123 15.4364 86.2359 13.7602C84.5595 12.0841 82.4994 10.8422 80.2344 10.1425C77.9694 9.44275 75.5679 9.30623 73.2382 9.74479C72.4536 7.50756 71.1347 5.49566 69.3962 3.88376C67.6576 2.27186 65.5519 1.10869 63.2618 0.495228C60.9718 -0.118234 58.5666 -0.16344 56.255 0.363534C53.9435 0.890508 51.7956 1.97374 49.9977 3.51917C48.1993 1.9748 46.0512 0.892548 43.7398 0.366302C41.4284 -0.159944 39.0235 -0.114292 36.7338 0.499295C34.444 1.11288 32.3386 2.27588 30.6001 3.88738C28.8615 5.49889 27.5425 7.51024 26.7573 9.74695C24.4276 9.3091 22.0264 9.44623 19.7618 10.1464C17.4971 10.8467 15.4376 12.0888 13.7616 13.7651C12.0857 15.4415 10.8441 17.5014 10.1445 19.7662C9.44484 22.031 9.30832 24.4323 9.74677 26.7618C7.51005 27.547 5.4987 28.8661 3.88719 30.6046C2.27568 32.3431 1.11268 34.4486 0.499093 36.7383C-0.114495 39.0281 -0.160154 41.4329 0.366093 43.7443C0.892339 46.0557 1.97461 48.2038 3.51898 50.0022C1.97414 51.8006 0.891536 53.9488 0.36514 56.2605C-0.161255 58.5721 -0.115557 60.9772 0.498299 63.2672C1.11216 65.5571 2.2756 67.6627 3.88766 69.4011C5.49972 71.1394 7.5117 72.4581 9.74893 73.2427C9.31011 75.5722 9.44647 77.9737 10.1462 80.2386C10.8459 82.5035 12.0878 84.5634 13.7642 86.2396C15.4405 87.9157 17.5006 89.1573 19.7656 89.8568C22.0306 90.5562 24.4321 90.6923 26.7616 90.2532C27.5468 92.4899 28.8659 94.5012 30.6044 96.1127C32.3429 97.7242 34.4484 98.8872 36.7381 99.5008C39.0279 100.114 41.4327 100.16 43.7441 99.6338C46.0555 99.1076 48.2036 98.0253 50.002 96.4809C51.8004 98.0258 53.9487 99.1084 56.2603 99.6348C58.5719 100.161 60.977 100.115 63.267 99.5016C65.557 98.8877 67.6625 97.7243 69.4009 96.1122C71.1393 94.5002 72.458 92.4882 73.2425 90.251C75.5721 90.6897 77.9736 90.5532 80.2386 89.8535C82.5035 89.1538 84.5635 87.9119 86.2398 86.2356C87.916 84.5594 89.1579 82.4994 89.8577 80.2344C90.5574 77.9695 90.6938 75.568 90.2551 73.2383C92.492 72.4533 94.5035 71.1343 96.1151 69.3957C97.7267 67.6571 98.8897 65.5515 99.5031 63.2616C100.117 60.9717 100.162 58.5667 99.6351 56.2553C99.1085 53.9439 98.0257 51.796 96.4808 49.9979Z" fill="black"/>
<path d="M41.0245 69.0842L27.1301 55.1984C26.6028 54.6703 26.3066 53.9544 26.3066 53.2081C26.3066 52.4618 26.6028 51.7459 27.1301 51.2178L28.8182 49.5276C29.3463 49.0002 30.0622 48.7041 30.8085 48.7041C31.5548 48.7041 32.2707 49.0002 32.7988 49.5276L42.899 59.6212L66.6855 34.3438C67.1973 33.8007 67.9037 33.4829 68.6496 33.4602C69.3955 33.4374 70.12 33.7116 70.664 34.2224L72.3975 35.8585C72.9413 36.3704 73.2595 37.0773 73.2822 37.8237C73.305 38.5701 73.0304 39.2951 72.5189 39.8392L45.0724 69.0214C44.814 69.2968 44.5028 69.5174 44.1574 69.6702C43.812 69.8229 43.4394 69.9047 43.0618 69.9105C42.6842 69.9164 42.3092 69.8462 41.9592 69.7043C41.6092 69.5623 41.2914 69.3515 41.0245 69.0842Z" fill="white"/>
</svg>
