<svg width="17" height="17" viewBox="0 0 17 17" fill="none" xmlns="http://www.w3.org/2000/svg">
<path d="M3.26064 9.56248C3.26151 9.472 3.28023 9.38259 3.31573 9.29936C3.35123 9.21613 3.40281 9.14073 3.46751 9.07748L7.65552 5.01647C7.78629 4.89042 7.96162 4.82124 8.14323 4.82404C8.32483 4.82683 8.49795 4.90138 8.62478 5.0314L12.6858 9.21941C12.7964 9.35265 12.8526 9.52271 12.8433 9.69562C12.8339 9.86852 12.7597 10.0315 12.6354 10.1521C12.5111 10.2726 12.3458 10.3418 12.1727 10.3458C11.9996 10.3498 11.8314 10.2884 11.7016 10.1737L8.12115 6.48131L4.42872 10.0618C4.33149 10.1568 4.20826 10.2209 4.07462 10.2459C3.94097 10.271 3.8029 10.2558 3.67788 10.2023C3.55285 10.1489 3.44648 10.0596 3.37221 9.94569C3.29794 9.8318 3.25912 9.69844 3.26064 9.56248Z" fill="#05161C"/>
</svg>
