<svg width="62" height="61" viewBox="0 0 62 61" fill="none" xmlns="http://www.w3.org/2000/svg">
<path fill-rule="evenodd" clip-rule="evenodd" d="M15.4597 25.7066C14.3201 25.7066 13.3877 24.7742 13.3877 23.6346V19.4906H9.24365C8.10404 19.4906 7.17163 18.5581 7.17163 17.4185C7.17163 16.2789 8.10404 15.3465 9.24365 15.3465H13.3877V11.2025C13.3877 10.0629 14.3201 9.13045 15.4597 9.13045C16.5993 9.13045 17.5317 10.0629 17.5317 11.2025V15.3465H21.6758C22.8154 15.3465 23.7478 16.2789 23.7478 17.4185C23.7478 18.5581 22.8154 19.4906 21.6758 19.4906H17.5317V23.6346C17.5317 24.7742 16.5993 25.7066 15.4597 25.7066ZM34.0715 45.6896C28.3527 45.6896 23.7114 41.0483 23.7114 35.3295C23.7114 29.6107 28.3527 24.9694 34.0715 24.9694C39.7903 24.9694 44.4316 29.6107 44.4316 35.3295C44.4316 41.0483 39.7903 45.6896 34.0715 45.6896ZM34.0714 29.1135C31.8507 29.1135 29.7986 30.2982 28.6882 32.2215C27.5778 34.1448 27.5778 36.5143 28.6882 38.4376C29.7986 40.3608 31.8507 41.5456 34.0714 41.5456C36.2922 41.5456 38.3443 40.3608 39.4547 38.4376C40.5651 36.5143 40.5651 34.1448 39.4547 32.2215C38.3443 30.2982 36.2922 29.1135 34.0714 29.1135ZM38.4891 19.4906L41.0638 22.2939C41.8486 23.1483 42.9556 23.6346 44.1157 23.6346H50.684V48.4989H17.5317V32.038C17.5317 30.8937 16.604 29.966 15.4597 29.966C14.3153 29.966 13.3877 30.8937 13.3877 32.038V48.4989C13.3877 50.7781 15.2525 52.6429 17.5317 52.6429H50.684C52.9633 52.6429 54.8281 50.7781 54.8281 48.4989V23.6346C54.8281 21.3554 52.9633 19.4906 50.684 19.4906H44.1157L41.5464 16.6933C40.7798 15.8438 39.6609 15.3465 38.5006 15.3465H29.9818C28.8375 15.3465 27.9098 16.2742 27.9098 17.4185C27.9098 18.5629 28.8375 19.4906 29.9818 19.4906H38.4891Z" fill="#37474F"/>
</svg>
